<?xml version="1.0" encoding="utf-8"?>
<!-- Generator: Adobe Illustrator 23.1.0, SVG Export Plug-In . SVG Version: 6.00 Build 0)  -->
<svg version="1.2" baseProfile="tiny" id="Шар_1"
	 xmlns="http://www.w3.org/2000/svg" xmlns:xlink="http://www.w3.org/1999/xlink" x="0px" y="0px" viewBox="0 0 400 400"
	 xml:space="preserve">
<circle fill="none" stroke="#020203" stroke-miterlimit="10" cx="199.9" cy="200.1" r="196.9"/>
<g>
	<path fill="#030304" stroke="#030304" stroke-width="0.5" stroke-miterlimit="10" d="M230.8,82.8c-0.5,0-1.6,0-1.6-1c0,0,0-0.5,0-1
		c0.5-1,1-2.1,1.6-3.7c3.7-7.9,4.7-16.2,4.2-24.1c-0.5-4.2-1.6-7.9-3.1-11.5c-1-2.6-2.6-5.2-4.2-7.3c-3.1-5.2-7.9-9.4-13.1-13.1
		c-5.2-3.1-11-5.2-17.3-6.3c-6.3-0.5-12.1,0-17.8,1.6c-2.6,1-5.2,1.6-7.9,3.1c-4.7,2.6-8.9,6.3-12.1,10.5c-3.7,4.7-6.3,10-7.3,16.2
		c-1,6.3-1,12.1,0.5,18.3c1,3.7,2.6,6.8,4.7,10c4.7,7.3,11.5,12.6,20.4,14.7c5.2,1.6,11,1.6,16.8,0.5c3.7-1,7.3-2.1,10.5-4.2
		c4.7-2.6,7.9-6.3,11-11c3.7-6.3,5.2-13.1,4.2-21c-0.5-4.7-2.1-8.9-4.7-12.6c-3.7-5.8-8.9-9.4-15.7-11.5c-5.2-1.6-11-1.6-16.2,0
		c-2.1,0.5-4.2,1.6-5.8,3.1c-5.8,3.1-9.4,8.4-11,14.7c-1,4.2-1,7.9,0,12.1c1.6,6.3,4.7,11,10.5,14.1c5.2,3.1,10.5,3.7,16.2,1.6
		c4.2-1.6,7.3-3.7,10-7.3c3.7-6.3,4.7-12.1,1-18.9c-1.6-3.1-4.7-5.2-8.4-6.3c-2.6-0.5-5.2-1-7.9,0c-4.7,1.6-7.3,5.2-7.9,9.4
		c0,2.1,0.5,4.7,1.6,6.3c1.6,2.6,5.8,3.7,8.4,1.6c1.6-0.5,2.1-2.1,1.6-3.1c0-0.5,0-1-0.5-1.6s-0.5-0.5-1,0c-0.5,0.5-1.6,1-2.1,0.5
		c-0.5,0-0.5-0.5-0.5-1c0-1.6,1-2.6,3.1-2.1c1.6,0,2.1,1,3.1,2.1c1,1.6,1,3.1,0,4.7c-1.6,3.1-5.2,4.7-8.9,4.2
		c-3.1-1-5.8-3.1-7.3-6.3c-2.6-5.2-1-11,3.1-14.7c5.8-4.7,13.1-5.2,19.4-1c3.1,2.1,5.2,5.2,6.8,8.9c3.1,7.9,1,14.7-4.7,21
		c-2.1,2.1-4.7,3.7-7.3,4.7c-5.2,2.1-11,2.6-16.8,0c-4.2-1.6-7.9-4.2-10.5-7.9c-1.6-1.6-2.1-3.7-3.1-5.8c-2.1-4.7-2.6-10.5-1.6-15.7
		c1-5.8,4.2-10.5,8.4-14.7c1.6-1.6,4.2-3.1,6.3-4.2c3.7-2.1,7.9-3.1,12.6-3.1c6.3,0,12.6,1.6,17.8,5.2c3.1,2.1,5.8,4.7,7.9,7.3
		c3.7,4.7,5.8,10,6.3,16.2c1,7.9-1,15.2-5.2,22c-2.1,3.7-5.2,6.3-8.9,9.4c-2.6,1.6-5.2,3.1-7.9,4.2c-5.8,2.6-12.1,3.1-18.3,2.6
		c-6.8-1-13.1-3.7-18.3-7.9c-2.6-2.1-5.2-4.7-7.3-7.9c-1.6-2.1-2.6-4.7-3.7-6.8c-2.1-4.7-3.1-10-3.7-15.7c0-5.8,1-11,3.1-16.8
		c2.6-6.3,6.3-11,11.5-15.2c1.6-1,3.1-2.1,4.7-3.1c0,0,0,0,0.5,0c1-0.5,2.1-1,3.1-1.6c0,0,0.5,0,1-0.5c1.6-0.5,2.6-1.6,4.2-1.6
		c6.3-2.1,12.1-3.1,18.9-2.1c8.4,1,16.2,4.2,22.5,9.4c4.7,3.7,7.9,7.9,11,12.6c2.1,3.1,3.1,6.8,4.7,10.5c2.1,6.3,2.6,12.1,2.1,18.3
		c-0.5,4.7-1.6,8.9-3.1,13.1C233.4,78.6,232.4,80.7,230.8,82.8C231.3,82.8,231.3,82.8,230.8,82.8z"/>
	<path fill="#030304" stroke="#030304" stroke-width="0.5" stroke-miterlimit="10" d="M67.3,218.5c0.5-0.5,1-1,1.6-1
		c0,0,0.5,0,0.5,0.5c1,1,1.6,2.1,2.1,3.1c5.2,6.8,11.5,12.1,19.4,15.2c3.7,1.6,7.9,2.6,11.5,3.1c3.1,0,5.8,0.5,8.4,0
		c6.3-0.5,12.1-2.1,17.3-5.2c5.2-3.1,10-6.8,13.6-12.1c3.7-4.7,5.8-10.5,6.8-16.2c0.5-2.6,0.5-5.2,0.5-7.9c0-5.2-1-10.5-3.1-15.7
		c-2.6-5.2-5.8-10-10.5-14.1c-4.7-4.2-10.5-6.3-16.2-7.9c-3.7-0.5-7.3-1-11-0.5c-8.9,0.5-16.2,4.2-22.5,11
		c-4.2,4.2-6.8,8.9-7.9,14.7c-1,3.7-1.6,7.3-1,11c0,5.2,1.6,10.5,4.7,14.7c3.7,6.3,9.4,11,16.2,13.1c4.2,1.6,8.9,2.1,13.1,1.6
		c6.8-0.5,12.6-3.7,17.8-8.4c3.7-4.2,6.3-8.9,7.3-14.1c0.5-2.1,0.5-4.2,0-6.3c0-6.3-3.1-12.1-7.9-16.8c-3.1-3.1-6.3-4.7-10.5-5.8
		c-6.3-1.6-12.1-0.5-17.3,2.6c-4.7,3.1-7.9,7.9-9.4,13.6c-1,4.2-0.5,8.4,1.6,12.1c3.1,6.3,8.9,9.4,16.2,9.4c3.7,0,6.8-1.6,9.4-4.2
		c2.1-2.1,3.1-4.2,3.7-6.8c1-4.7-1-8.9-4.7-11.5c-2.1-1.6-4.2-1.6-6.3-1.6c-3.1,0-5.8,3.1-5.8,6.8c0,1.6,1,2.6,2.1,3.1
		c0.5,0,1,0,1.6,0s0.5,0,0.5-0.5c-0.5-0.5,0-1.6,0.5-2.1c0.5,0,1,0,1.6,0c1,1,1.6,2.1,0.5,3.7c-1,1-2.1,1.6-3.1,1.6
		c-1.6,0-3.1-1-4.2-2.1c-2.1-3.1-1.6-6.8,0.5-9.4c2.1-2.6,5.2-3.7,8.9-3.1c5.8,0,10,4.7,11,10c1.6,7.3-1.6,14.1-8.4,17.3
		c-3.1,1.6-6.8,2.6-11,1.6c-8.4-1.6-13.6-6.3-16.2-14.1c-1-3.1-1-5.8-0.5-8.4c0.5-5.8,3.1-11,7.9-14.7c3.1-3.1,7.9-4.7,12.1-5.8
		c2.1-0.5,4.7,0,6.3,0c5.8,0.5,10.5,2.6,14.7,6.3c4.7,3.7,7.3,8.9,8.4,14.7c0.5,2.6,0.5,4.7,0.5,7.3c0,4.7-1,8.9-3.1,13.1
		c-3.1,5.8-7.3,10-13.1,13.1c-3.1,1.6-6.3,2.6-10,3.1c-5.8,1-11.5,0-17.3-2.1c-7.9-3.1-13.1-7.9-17.3-15.2
		c-2.1-3.7-3.1-7.9-3.7-12.1c-0.5-3.1-0.5-6.3,0-8.9c0.5-6.3,3.1-12.6,6.3-17.8c4.2-5.8,9.4-9.4,16.2-12.6c3.1-1.6,6.8-2.1,10.5-2.6
		c2.6-0.5,5.2,0,7.9,0c5.2,0.5,10.5,1.6,15.2,4.2c5.2,2.6,9.4,6.3,13.1,11c4.2,5.2,6.3,11,7.9,17.3c0.5,1.6,0.5,3.7,0.5,5.8v0.5
		c0,1.6,0,2.6,0,3.7c0,0.5,0,0.5,0,1c0,1.6,0,3.1-0.5,4.7c-1,6.3-3.1,12.1-6.8,17.8c-4.7,6.8-11,12.1-18.9,15.7
		c-5.2,2.1-11,3.1-16.2,3.7c-3.7,0-7.3,0-11-1c-6.3-1-12.1-3.7-17.3-6.8c-3.7-2.6-7.3-5.8-10-9.4C69.4,223.2,67.9,221.1,67.3,218.5
		C67.3,219,67.3,219,67.3,218.5z"/>
	<path fill="#030304" stroke="#030304" stroke-width="0.5" stroke-miterlimit="10" d="M192,124.7c0.5-0.5,1-0.5,1.6,0l0.5,0.5
		c0.5,1,0.5,2.6,1,3.7c2.6,7.9,6.8,15.2,13.1,21c3.1,2.6,6.3,4.7,10,6.3c2.6,1.6,5.2,2.1,7.9,3.1c6.3,1.6,12.1,2.1,17.8,1
		c6.3-1,11.5-3.1,16.8-6.8c4.7-3.1,8.9-7.9,12.1-13.1c1.6-2.6,2.6-4.7,3.1-7.3c1.6-5.2,2.6-10.5,2.1-15.7
		c-0.5-6.3-2.1-11.5-5.2-16.8c-3.1-5.2-7.3-9.4-12.6-13.1c-3.1-2.1-6.3-3.1-10-4.2c-8.4-2.6-16.8-1.6-25.1,2.6
		c-5.2,2.6-9.4,6.3-12.6,11c-2.1,3.1-3.7,6.3-4.7,10c-1.6,5.2-1.6,10.5-1,15.7c1.6,7.3,4.7,13.1,10.5,17.8c3.7,3.1,7.3,4.7,12.1,6.3
		c6.8,1.6,13.1,1,19.4-2.1c4.7-2.6,8.9-6.3,11.5-11c1-1.6,1.6-4.2,2.6-6.3c2.1-6.3,1.6-12.6-1.6-18.3c-1.6-3.7-4.7-6.8-7.9-8.9
		c-5.2-3.1-11-4.7-17.3-3.1c-5.8,1.6-10.5,4.7-13.1,9.4c-2.1,3.7-3.1,7.9-2.6,12.1c1,6.8,4.7,12.1,11.5,14.7c3.7,1,6.8,1,10.5-0.5
		c2.6-1,4.7-3.1,5.8-5.2c2.6-4.2,2.1-8.9-0.5-12.6c-1.6-1.6-3.1-3.1-5.8-3.1c-3.1-0.5-6.8,1.6-7.9,4.2c-0.5,1.6,0,3.1,1,3.7
		c0.5,0,1,0.5,1.6,0.5c0.5,0,0.5,0,0.5-0.5c0-1,0.5-1.6,1-1.6s1,0,1,0.5c1,1.6,1,2.6-1,3.7c-1,0.5-2.6,0.5-3.7,0.5
		c-1.6-0.5-2.6-1.6-3.1-3.7c-1-3.1,1-7.3,3.7-8.9c3.1-1.6,6.3-1.6,9.4,0c5.2,2.1,7.9,7.9,6.8,13.1c-1,7.3-6.3,12.6-13.6,13.6
		c-3.7,0.5-7.3,0-11-2.1c-7.3-4.2-10.5-10.5-10.5-18.9c0-3.1,1-5.8,2.1-8.4c2.6-5.2,6.8-9.4,12.1-11c4.2-1.6,8.9-2.1,13.1-1
		c2.1,0.5,4.2,1,6.3,2.1c5.2,2.1,8.9,5.8,11.5,10.5c3.1,5.2,3.7,10.5,3.1,16.2c0,2.6-1,4.7-1.6,7.3c-1.6,4.2-3.7,7.9-6.8,11
		c-4.7,4.7-10.5,7.3-16.8,7.9c-3.7,0.5-7.3,0-11-0.5c-5.8-1-11-3.7-15.2-7.9c-6.3-5.2-9.4-12.1-11-19.9c-0.5-4.2-0.5-8.4,0.5-12.6
		c0.5-3.1,1.6-5.8,3.1-8.4c2.6-5.8,6.8-10.5,12.1-14.1c5.8-3.7,12.1-6.3,19.4-6.3c3.7,0,7.3,0,11,1c2.6,0.5,5.2,1.6,7.9,2.6
		c4.7,2.1,9.4,5.2,13.1,9.4c4.2,4.2,6.8,9.4,8.4,14.7c2.1,6.3,2.6,12.6,1.6,19.4c0,1.6-0.5,3.7-1,5.2v0.5c-0.5,1-1,2.6-1.6,3.7
		c0,0,0,0.5-0.5,1c-0.5,1.6-1,3.1-2.1,4.2c-3.1,5.8-7.3,10.5-12.6,14.1c-6.8,4.7-14.7,7.9-23.1,7.9c-5.8,0.5-11-0.5-16.8-2.1
		c-3.7-1-6.8-2.6-10.5-4.7c-5.2-3.1-10-7.3-13.6-12.6c-2.6-3.7-4.7-7.9-6.3-12.1c-0.5-2.1-1.6-4.7-1.6-6.8
		C192,124.7,192,124.7,192,124.7z"/>
	<path fill="#030304" stroke="#030304" stroke-width="0.5" stroke-miterlimit="10" d="M187.3,114.8c-0.5,0.5-1,1-1.6,0.5l-0.5-0.5
		c-0.5-1-1-2.6-1.6-3.7c-3.1-7.9-7.9-14.7-14.7-19.9c-3.1-2.6-6.3-4.7-10.5-6.3c-2.6-1-5.2-2.1-7.9-2.6c-6.3-1.6-12.1-1.6-18.3,0
		s-11.5,3.7-16.2,7.9c-4.7,3.7-8.4,7.9-11,13.6c-1.6,2.6-2.1,4.7-3.1,7.9c-1.6,5.2-2.1,10.5-1.6,15.7c0.5,5.8,2.6,11.5,6.3,16.2
		c3.1,5.2,7.9,9.4,13.1,12.6c3.1,1.6,6.3,3.1,10,3.7c8.9,2.1,17.3,0.5,25.1-3.7c4.7-2.6,8.9-6.3,12.1-11c2.1-3.1,3.7-6.3,4.7-10
		c1.6-5.2,1.6-10.5,0-15.7c-1.6-7.3-5.8-13.1-11.5-17.8c-3.7-2.6-7.9-4.7-12.6-5.2c-6.8-1.6-13.1-0.5-19.4,3.1
		c-4.7,2.6-8.4,6.3-11,11.5c-1,2.1-1.6,4.2-2.1,6.3c-1.6,6.3-0.5,12.6,2.6,18.3c2.1,3.7,4.7,6.3,8.4,8.4c5.2,3.1,11,4.2,17.3,2.6
		c5.8-1.6,10-4.7,13.1-10c2.1-3.7,3.1-7.9,2.1-12.1c-1.6-6.8-5.2-12.1-12.6-13.6c-3.7-1-6.8-0.5-10.5,1.6c-2.6,1.6-4.2,3.1-5.8,5.8
		c-2.1,4.2-1.6,8.9,1,12.6c1.6,1.6,3.1,2.6,5.8,3.1c3.1,0.5,6.8-1.6,7.3-4.7c0.5-1.6,0-3.1-1-3.7c-0.5,0-1-0.5-1.6-0.5
		s-0.5,0-0.5,0.5c0,1,0,1.6-1,1.6c-0.5,0-1,0-1-0.5c-1-1.6-1-2.6,0.5-3.7c1-0.5,2.1-1,3.7-0.5c1.6,0.5,3.1,1.6,3.1,3.1
		c1,3.1-0.5,7.3-3.1,8.9c-3.1,1.6-6.3,1.6-9.4,0.5c-5.2-2.1-8.4-7.3-7.9-13.1c0.5-7.3,5.8-13.1,13.1-14.1c3.7-0.5,7.3,0,11,1.6
		c7.9,3.7,11,10,11,18.3c0,3.1-0.5,5.8-1.6,8.4c-2.1,5.8-6.3,9.4-11.5,12.1c-4.2,1.6-8.4,2.6-13.1,1.6c-2.1,0-4.2-1-6.3-1.6
		c-5.2-2.1-9.4-5.2-12.1-10c-3.1-4.7-4.2-10.5-4.2-16.2c0-2.6,0.5-4.7,1.6-7.3c1.6-4.2,3.1-7.9,6.3-11c4.7-4.7,10-7.9,16.2-8.9
		c3.7-0.5,7.3-0.5,11,0c5.8,1,11,3.1,15.7,6.8c6.3,4.7,10,11.5,12.1,19.4c1,4.2,1,8.4,0,13.1c-0.5,3.1-1.6,5.8-2.6,8.4
		c-2.6,5.8-6.3,11-11.5,14.7c-5.8,4.2-12.1,6.3-18.9,7.3c-3.7,0-7.3,0-11-0.5c-2.6-0.5-5.2-1.6-7.9-2.1c-5.2-2.1-9.4-4.7-13.6-8.4
		c-4.2-4.2-7.3-8.9-9.4-14.1c-2.1-6.3-3.1-12.6-2.6-18.9c0-1.6,0.5-3.7,1-5.2v-0.5c0.5-1,0.5-2.6,1-3.7c0,0,0-0.5,0.5-1
		c0.5-1.6,1-3.1,1.6-4.2c3.1-5.8,6.8-11,11.5-14.7c6.3-5.2,14.1-8.4,22.5-9.4c5.8-0.5,11,0,16.8,1.6c3.7,1,7.3,2.1,10.5,4.2
		c5.8,3.1,10.5,6.8,14.7,11.5c3.1,3.7,5.2,7.3,6.8,11.5c1,2.1,1.6,4.2,2.1,6.8C187.8,114.8,187.8,114.8,187.3,114.8z"/>
	<path fill="#030304" stroke="#030304" stroke-width="0.5" stroke-miterlimit="10" d="M174.7,154.1c0.5,0.5,1,1,1,1.6
		c0,0,0,0.5-0.5,0.5c-1,1-2.1,1.6-3.1,2.1c-6.8,5.2-11.5,12.1-14.7,19.9c-1.6,3.7-2.1,7.9-2.6,11.5c0,3.1,0,5.8,0,8.4
		c0.5,6.3,2.6,12.1,5.8,17.3c3.1,5.2,7.3,9.4,12.6,13.1c4.7,3.1,10.5,5.8,16.2,6.3c2.6,0.5,5.2,0.5,7.9,0.5c5.2,0,10.5-1.6,15.2-3.7
		c5.2-2.6,10-6.3,13.6-11c3.7-4.7,6.3-10.5,7.9-16.2c0.5-3.7,0.5-7.3,0.5-11c-1-8.9-4.7-16.2-11-22.5c-4.2-2.6-9.4-5.2-14.7-6.3
		c-3.7-1-7.3-1.6-11-1c-5.2,0.5-10,2.1-14.7,4.7c-6.3,4.2-11,9.4-13.1,16.2c-1.6,4.2-2.1,8.9-1.6,13.1c1,6.8,3.7,12.6,8.9,17.3
		c4.2,3.7,8.9,6.3,14.7,7.3c2.1,0.5,4.2,0,6.3,0c6.3-0.5,12.1-3.1,16.2-7.9c2.6-3.1,4.7-6.3,5.8-10.5c1.6-6.3,0.5-12.1-3.1-17.3
		c-3.1-4.7-7.9-7.9-13.6-8.9c-4.2-0.5-8.4,0-12.1,1.6c-6.3,3.7-9.4,8.9-9.4,16.2c0,3.7,1.6,6.8,4.7,9.4c2.1,1.6,4.2,3.1,6.8,3.7
		c4.7,1,8.9-1,11.5-4.7c1.6-2.1,1.6-4.2,1.6-6.3c-0.5-3.1-3.7-5.8-6.8-5.8c-1.6,0-2.6,1-3.1,2.1c0,0.5,0,1,0,1.6s0,0.5,0.5,0.5
		c0.5-0.5,1.6,0,2.1,0.5c0,0.5,0,1,0,1.6c-1,1.6-2.1,1.6-3.7,0.5c-1-1-1.6-2.1-1.6-3.1c0-1.6,0.5-3.1,2.1-4.2
		c3.1-2.1,6.8-1.6,9.4,0.5c2.6,2.1,3.7,5.2,3.7,8.4c0,5.8-4.2,10-9.4,11c-6.8,1-13.6-1.6-17.3-8.4c-1.6-3.1-2.6-6.8-2.1-11
		c1-8.4,5.8-13.6,13.6-16.2c2.6-1,5.8-1,8.4-1c6.3,0.5,11,3.1,14.7,7.3c3.1,3.1,4.7,7.3,5.8,12.1c0.5,2.1,0.5,4.2,0,6.3
		c0,5.8-2.1,10.5-5.8,14.7c-3.7,4.7-8.4,7.3-14.1,8.9c-2.6,0.5-4.7,0.5-7.3,1c-4.7,0-8.9-0.5-13.1-2.6c-5.8-2.6-10.5-6.8-13.6-13.1
		c-1.6-3.1-3.1-6.3-3.1-10c-1-5.8-0.5-11.5,1.6-17.3c2.6-7.9,7.9-13.1,14.7-17.3c3.7-2.1,7.9-3.1,12.1-4.2c3.1-0.5,5.8-0.5,8.9,0
		c6.3,0.5,12.6,2.6,17.8,6.3c5.8,4.2,10,9.4,12.6,15.7c1.6,3.1,2.1,6.8,3.1,10.5c0.5,2.6,0.5,5.2,0,7.9c0,5.2-1.6,10.5-4.2,15.7
		c-2.6,5.2-6.3,9.4-10.5,13.1c-5.2,4.2-11,6.8-17.3,7.9c-1.6,0.5-3.7,0.5-5.8,1h-0.5c-1.6,0-2.6,0-3.7,0c-0.5,0-0.5,0-1,0
		c-1.6,0-3.1,0-4.7,0c-6.3-1-12.1-3.1-17.8-6.3c-7.3-4.7-12.6-11-16.2-18.9c-2.6-5.2-3.7-10.5-4.2-16.2c0-3.7,0-7.9,0.5-11
		c1-6.3,3.1-12.1,6.8-17.3c2.6-3.7,5.2-7.3,8.9-10c1.6-1.6,3.7-3.1,5.8-4.2C174.2,154.1,174.2,154.1,174.7,154.1z"/>
	<path fill="#030304" stroke="#030304" stroke-width="0.5" stroke-miterlimit="10" d="M313.1,225.8c-0.5,0-1.6-0.5-1.6-1v-0.5
		c0.5-1,1.6-2.1,2.1-3.1c4.7-7.3,6.8-15.2,6.8-23.6c0-4.2-0.5-7.9-1.6-12.1c-0.5-2.6-1.6-5.2-3.1-7.9c-2.6-5.8-6.3-10.5-11-14.1
		c-4.7-3.7-10-6.3-16.2-7.9c-5.8-1.6-11.5-1.6-17.8-0.5c-2.6,0.5-5.2,1.6-7.9,2.1c-4.7,2.1-9.4,4.7-13.1,8.9
		c-4.2,4.2-7.3,9.4-9.4,14.7c-2.1,5.8-2.1,12.1-1.6,17.8c0.5,3.7,1.6,6.8,3.1,10.5c3.7,7.9,10,13.6,18.3,17.3
		c5.2,2.1,11,3.1,16.2,2.1c3.7-0.5,7.3-1.6,11-3.1c4.7-2.1,8.9-5.2,12.1-9.4c4.7-5.8,6.8-12.6,6.3-19.9c0-4.7-1.6-8.9-3.1-13.1
		c-3.1-6.3-7.9-10.5-14.1-13.1c-5.2-2.1-10.5-2.6-16.2-1.6c-2.1,0.5-4.2,1.6-6.3,2.1c-6.3,2.6-10,7.3-12.6,13.6
		c-1.6,3.7-2.1,7.9-1.6,12.1c1,6.3,3.7,11,8.9,15.2c4.7,3.1,10,4.7,16.2,3.7c4.2-0.5,7.9-2.6,10.5-5.8c4.7-5.2,5.8-11.5,3.1-18.3
		c-1.6-3.1-4.2-5.8-7.3-7.3c-2.6-1-5.2-1.6-7.9-1c-4.7,1-7.9,4.2-8.9,8.4c-0.5,2.1,0,4.7,1,6.3c1.6,3.1,5.2,4.2,8.4,3.1
		c1.6-0.5,2.1-1.6,2.1-3.1c0-0.5,0-1-0.5-1.6c0-0.5-0.5-0.5-1,0s-1.6,0.5-2.1,0c-0.5,0-0.5-0.5-0.5-1c0.5-1.6,1.6-2.6,3.1-1.6
		c1,0.5,2.1,1.6,2.6,2.6c1,1.6,0.5,3.1-0.5,4.7c-2.1,3.1-5.8,4.2-9.4,3.1c-3.1-1-5.2-3.7-6.3-6.8c-1.6-5.8,0.5-11,5.2-14.1
		c6.3-4.2,13.6-3.7,19.4,1.6c3.1,2.6,4.7,5.8,5.8,9.4c1.6,7.9-0.5,14.7-7.3,19.9c-2.1,1.6-4.7,3.1-7.9,3.7c-5.8,1.6-11,1-16.8-1.6
		c-4.2-2.1-7.3-5.2-9.4-9.4c-1-1.6-1.6-4.2-2.6-6.3c-1.6-5.2-1.6-10.5,0-15.7c1.6-5.8,5.2-10,10-13.1c2.1-1.6,4.2-2.6,6.3-3.1
		c4.2-1.6,8.4-2.1,13.1-2.1c6.3,0.5,12.1,3.1,17.3,7.3c2.6,2.6,4.7,5.2,6.8,8.4c3.1,5.2,4.2,10.5,4.7,16.8c0,7.9-2.6,15.2-7.9,21.5
		c-2.6,3.1-6.3,5.8-10,7.9c-2.6,1.6-5.2,2.6-8.4,3.1c-6.3,1.6-12.6,1.6-18.9,0c-6.8-1.6-12.6-5.2-17.3-10.5
		c-2.6-2.6-4.7-5.8-6.3-8.9c-1.6-2.6-2.1-4.7-3.1-7.3c-1.6-5.2-2.1-10.5-1.6-15.7c0.5-5.8,2.6-11,5.2-16.2c3.1-5.8,7.9-10,13.1-13.6
		c1.6-1,3.1-2.1,4.7-2.6c0,0,0,0,0.5,0c1-0.5,2.1-1,3.7-1.6c0.5,0,0.5,0,1,0c1.6-0.5,3.1-1,4.7-1.6c6.3-1.6,12.6-1.6,18.9,0
		c8.4,1.6,15.7,5.8,21.5,12.1c4.2,4.2,7.3,8.9,9.4,14.1c1.6,3.1,2.6,6.8,3.1,11c1,6.3,1,12.6,0,18.3c-1,4.7-2.6,8.9-4.7,12.6
		c-1,2.1-2.1,4.2-3.7,5.8C313.1,225.3,313.1,225.8,313.1,225.8z"/>
</g>
<g>
	<path fill="#030304" d="M48.5,227.9c72.3,37.7,158.8,46.6,237.9,27.2c19.9-4.7,39.3-12.1,57.6-20.4c2.1-1,0.5-4.7-2.1-3.1
		c-68.6,33-151.4,38.2-224.8,18.9c-23.1-6.3-45.6-14.7-66.5-25.7C47.9,223.7,46.4,226.9,48.5,227.9L48.5,227.9z"/>
</g>
<g>
	<path fill="#030304" d="M182.6,264.6c60.3,2.1,117.9-15.7,169.2-46.6c2.1-1,0-4.7-2.1-3.1c-50.8,30.9-107.4,48.7-167.1,46.1
		C180,260.9,180,264.6,182.6,264.6L182.6,264.6z"/>
</g>
<g>
	<path fill="#020203" d="M57.9,282.4c-0.5,2.1-1.6,3.7-2.1,5.8c-1,1.6-2.1,3.1-3.1,4.2c-1,1-2.1,2.1-3.7,3.1c-1,1-2.6,1.6-3.7,2.1
		c-1,0.5-2.1,1-3.1,1c-1,0-2.1,0-2.6,0s-1-0.5-1.6-0.5c-0.5-0.5-1-1-2.1-1.6c-0.5-0.5-1-1-1.6-2.1c-0.5-0.5-1-1.6-1-2.6
		c-0.5-1-0.5-2.1-0.5-3.1s0-2.6,0.5-3.7c0.5-1,0.5-1.6,1-2.1s1-0.5,1.6-0.5c0.5,0,0.5,0.5,1,0.5c0,0,0.5,0.5,0.5,1
		c0,0.5,0,0.5,0.5,1s0,1,0,1c0,0.5,0,1.6,0.5,2.1c0,0.5,0.5,1,1,1.6c0.5,0.5,0.5,1,1,1.6c0.5,0.5,1,0.5,1.6,0.5c0,0,0,0,0.5,0h0.5
		c0.5,0,0.5,0,1,0s0.5,0,1,0c0.5,0,1-0.5,1.6-0.5c0.5-0.5,1-0.5,1.6-1c0.5-0.5,1-1,2.1-1.6c0.5-0.5,1-1.6,1.6-2.1
		c0.5-0.5,1-1.6,1.6-2.1c0.5-0.5,0.5-1.6,1-2.1c0.5-1,0.5-2.1,0.5-3.1s0-2.1,0-2.6c0-1-0.5-1.6-1-2.1s-1-1-1.6-1c-0.5,0-1,0-1.6,0
		c-0.5,0-1,0.5-1.6,0.5c-0.5,0-1,0.5-1.6,0.5c-0.5,0-1,0-1.6,0c0,0-0.5,0-0.5-0.5c-0.5,0-0.5-0.5-0.5-1s-0.5-0.5-0.5-1s0-1,0-1.6
		c0,0,0-0.5,0.5-0.5l0.5-0.5l0.5-0.5l0.5-0.5c1-0.5,2.1-0.5,3.1-1c1,0,2.1-0.5,3.1-1c1-0.5,1.6-1,2.6-1.6c1-0.5,1.6-1.6,2.1-2.1
		c0.5-1,1-1.6,1.6-2.6c0.5-1,1-2.1,1-3.1c0-0.5,0-1,0-2.1c0-0.5-0.5-1-0.5-1c-0.5,0-1.6,0-2.1,0c-1,0-1.6,0.5-2.6,0.5
		c-1,0-2.6-0.5-3.7,0c-0.5,0.5-1,0.5-1.6,1l-0.5,0.5c-0.5,0.5-0.5,0.5-1,1l-0.5,0.5c0,0,0,0.5-0.5,0.5c-0.5,0.5-0.5,0.5-1,1
		s-0.5,0.5-1,0.5c-0.5,0-1,0.5-1,0.5c-0.5,0-0.5,0-1,0c-0.5,0-1-0.5-1-1s-0.5-1,0-2.1c0-0.5,0.5-1.6,1-2.1c0.5-0.5,1-1.6,2.1-2.1
		c0.5-0.5,1-1.6,2.1-2.1c0.5-0.5,1-1,1.6-1c0,0,0,0,0.5,0c0,0,0.5-0.5,1-0.5c0.5,0,0.5-0.5,1-0.5s1-0.5,1.6-0.5c0.5,0,1-0.5,1.6-0.5
		c0.5,0,1-0.5,1-0.5c0.5,0,1.6-0.5,2.1-0.5c0.5,0,1,0,2.1,0c0.5,0,1,0,1.6,0c0.5,0,1,0,1,0c0.5,0,1,0.5,1.6,1.6c0.5,0.5,1,1.6,1,2.6
		s0,2.1,0,3.7c0,1-0.5,2.6-0.5,3.7s-0.5,1.6-1,2.6c-0.5,1-1,1.6-1.6,2.6c-0.5,1-1,1.6-1.6,2.1c-0.5,0.5-1,1-1.6,1.6
		c-0.5,0.5-1,1-1.6,1c-0.5,0.5-0.5,0.5-1,0.5l0.5,0.5c0,0.5,0,1,0,1c0,0.5,0.5,0.5,0.5,1s0.5,0.5,0.5,1c0,1,0.5,2.1,0.5,2.6
		c0,1,0,1.6,0,2.1s0,1.6-0.5,2.1C58.4,280.3,57.9,281.4,57.9,282.4z"/>
	<path fill="#020203" d="M88.3,282.9c0,0,0,0.5-0.5,1c0,0.5-0.5,1-1,1.6c-2.1,2.6-4.2,5.2-6.3,7.9s-4.2,4.2-5.8,6.3
		c-2.1,1.6-3.7,3.1-5.2,3.7c-1.6,1-3.1,1-4.2,1c-1-0.5-2.1-1-2.6-1.6c-0.5-1-1-2.1-1.6-3.1c-0.5-1-0.5-2.6-0.5-4.2
		c0-1.6,0.5-3.7,1-5.2c0.5-1.6,1-3.1,1.6-4.7c0.5-1.6,1-3.1,2.1-4.7c1-1.6,1.6-3.1,2.6-4.7c1-1.6,2.1-2.6,2.6-3.7
		c0.5-0.5,1-1,1.6-1.6c0.5-0.5,1-1,1.6-1c0.5-0.5,1-0.5,1.6-0.5s1,0,1.6,0s1,0.5,1.6,1s0.5,1,1,1.6c0,0.5,0.5,1.6,0.5,2.1
		c0,1,0,1.6-0.5,2.6c0,1-0.5,1.6-1,2.6c-0.5,1-1,2.1-1.6,3.1s-1.6,2.1-2.1,3.1c-1,1-1.6,2.1-2.6,2.6c-0.5,0.5-0.5,0.5-1,1
		c-0.5,0.5-1,1-1.6,1.6c-0.5,0.5-1,1-1.6,1.6c-0.5,0.5-1,1-1.6,1.6c0,0.5,0,1,0,1.6c0,0.5,0,1,0,1.6c0,0.5,0.5,1,0.5,1
		c0.5,0.5,0.5,0.5,1,0.5c1,0,2.1,0,3.7-1c1.6-1,2.6-2.1,4.2-3.7c1.6-1.6,3.1-3.1,5.2-5.2c1.6-2.1,3.7-3.7,5.2-5.8
		c0.5-0.5,0.5-0.5,1-1c0.5-0.5,0.5-0.5,1-0.5l0,0c0,0,0,0,0,0.5v0.5C88.8,282.9,88.8,282.9,88.3,282.9z M74.7,276.1c0-0.5,0-0.5,0-1
		s0-0.5-0.5-0.5s-1,0-1.6,0.5s-1,1.6-2.1,2.6c-0.5,1-1.6,2.6-2.1,4.2c-0.5,1.6-1.6,3.1-2.1,5.2c0,0,0.5,0,0.5-0.5l0.5-0.5l0.5-0.5
		l0.5-0.5c1-1,2.1-2.1,2.6-3.1s1.6-1.6,1.6-2.1c0.5-0.5,1-1,1-1.6C74.7,277.2,74.7,276.7,74.7,276.1z"/>
	<path fill="#020203" d="M96.7,308.1C96.7,308.1,96.1,308.1,96.7,308.1c-0.5-0.5-1-0.5-1-1c0,0-0.5-0.5-0.5-1s-0.5-0.5-0.5-1
		c-0.5,1-0.5,2.1-1,3.7c-0.5,1-1,2.6-1,3.7c-0.5,1.6-1,2.6-1,3.7c-0.5,1-0.5,2.1-1,3.1c0,0.5,0,1-0.5,1.6c0,0.5-0.5,1-0.5,1.6
		c0,0.5-0.5,1-1,1c-0.5,0.5-0.5,0.5-1,0.5c0,0-0.5,0-1-0.5c-0.5-0.5-0.5-0.5-1-1c0-0.5-0.5-1-0.5-1c0-0.5,0-0.5,0-1s0.5-1,0.5-1.6
		c0-0.5,0.5-1,0.5-1.6v-0.5V316c0.5-1,0.5-2.1,1-3.1c0.5-1,1-2.1,1-3.7c0.5-1,1-2.6,1.6-3.7c0.5-1.6,1-2.6,1.6-4.2
		c-0.5,1-1.6,1.6-2.1,2.6c-0.5,0.5-1.6,1.6-2.1,1.6c-0.5,0.5-1.6,1-2.1,1c-0.5,0-1,0.5-1.6,0c-0.5,0-1-0.5-1.6-1s-0.5-1-1-2.1
		c0-1-0.5-2.1,0-3.7c0-1.6,0-3.1,0.5-5.2c0-1,0.5-2.1,1-3.1c0.5-1,1-2.1,1.6-3.7c0.5-1,1-2.6,1.6-3.7s1.6-2.6,2.1-3.7
		c0.5-1,1.6-2.1,2.1-3.1c0.5-1,1.6-1.6,2.1-2.1c0.5-0.5,1-0.5,1-1c0.5-0.5,1-0.5,1.6-0.5c0.5,0,1-0.5,1.6-0.5s1,0,1,0
		c0.5,0,0.5,0,1,0.5c0.5,0,0.5,0.5,1,1c0.5,0.5,0.5,0.5,0.5,1s0.5,0.5,0.5,1c0.5-1,0.5-2.1,1-3.7c0.5-1,0.5-2.1,1-3.1
		c0.5-1,0.5-2.1,1-2.6c0-1,0.5-1.6,0.5-2.1c0.5-1,0.5-1.6,1-2.6c0-1,0.5-1.6,0.5-2.1s0.5-1,0.5-1.6c0-0.5,0.5-1,0.5-1l0.5-0.5
		l0.5-0.5h0.5h0.5c0.5,0,0.5,0.5,1,0.5c0,0.5,0.5,1,0.5,1c0,0.5,0,1,0,1.6c0,0.5,0,1,0,1.6c0,0,0,0.5-0.5,1c0,0.5-0.5,1-0.5,1.6
		c0,0.5-0.5,1-0.5,1.6c0,0.5-0.5,1-0.5,1.6c-1,2.6-2.1,5.2-2.6,7.9c-1,2.6-1.6,4.7-2.6,6.8c2.1-2.1,3.7-3.7,5.2-4.2
		c1.6-1,3.1-1,4.7-1c0.5,0,0.5,0.5,1,0.5c0.5,0.5,0.5,1,1,1.6c0,0.5,0.5,1.6,0.5,2.1c0,1,0,2.1,0,3.1c0,0.5-0.5,1-0.5,2.1
		c0,1-0.5,1.6-0.5,2.6c-0.5,1-0.5,2.1-1,2.6c-0.5,1-0.5,2.1-1,2.6c-0.5,0.5-0.5,1.6-1,2.1c-0.5,0.5-0.5,1-1,1.6
		c-0.5,0.5-0.5,1-1,1.6c-0.5,0.5-1,1-1.6,1.6c-1,1-2.1,2.1-2.6,3.1c-1,0.5-1.6,1.6-2.6,1.6c-1,0.5-2.1,1-2.6,1
		C98.2,308.6,97.2,308.6,96.7,308.1z M86.2,299.7c0.5,0,1,0,1.6,0s1.6-0.5,2.1-1.6c1-0.5,1.6-1.6,2.6-3.1c1-1.6,2.1-3.1,3.1-5.2
		c0.5-1,1-2.6,1-3.7c0.5-1,0.5-2.1,1-3.1c0-0.5,0-1,0-1c0-0.5-0.5-0.5-0.5-1s-0.5-0.5-0.5-0.5c-0.5,0-0.5-0.5-1-0.5
		c-0.5,0-1,0-1.6,0.5s-1,1-2.1,2.1c-0.5,1-1.6,1.6-2.1,3.1s-1,2.1-2.1,3.7c-0.5,1-1,2.6-1.6,3.7s-0.5,2.6-1,3.7
		c-0.5,1.6-0.5,2.6-0.5,3.1C85.7,299.2,85.7,299.7,86.2,299.7z M96.7,300.2c0,0.5,0,0.5,0,1s0.5,0.5,0.5,0.5l0.5,0.5h0.5
		c0.5,0,1,0,1.6-0.5s1.6-1,2.6-1.6c1-1,1.6-1.6,2.6-3.1c1-1,1.6-2.6,2.6-4.2c0-0.5,0.5-1,0.5-1.6c0-0.5,0.5-1,0.5-2.1
		c0-0.5,0.5-1.6,0.5-2.1s0.5-1,0.5-1.6c0-0.5,0-1,0-1.6c0-0.5,0-0.5,0-0.5s-0.5,0-1,0c-0.5,0-0.5,0-1,0c-0.5,0-0.5,0-1,0.5
		c-0.5,0-0.5,0.5-1,0.5c-0.5,0.5-1,0.5-1.6,1s-1,1-1.6,1.6c-0.5,0.5-1,1.6-1.6,2.1s-1,1.6-1.6,2.6c0,0-0.5,0.5-0.5,1.6
		c0,1,0,1.6-0.5,2.6s-0.5,1.6-1,2.6C97.2,299.2,97.2,299.7,96.7,300.2z"/>
	<path fill="#020203" d="M140.7,294c0,0.5-0.5,1-0.5,2.1c-0.5,0.5-1,1.6-1.6,2.6s-1,2.1-2.1,2.6c-0.5,1-1.6,2.1-2.1,3.1
		c-1,1-2.1,2.1-2.6,3.1c-1,1-2.1,2.1-3.1,3.1c-0.5,0.5-1,1-1.6,1.6c-0.5,0.5-1,0.5-1.6,1s-1,0.5-1.6,0.5s-1,0-1,0
		c-1,0-1.6-0.5-2.6-1c-0.5-0.5-1-1-1.6-2.1c-0.5-1-0.5-1.6-0.5-2.6s0-2.1,0-3.7c0-1.6,0-2.6,0.5-4.2c0-1.6,0.5-3.1,0.5-4.7
		c0-0.5,0-1,0.5-2.1c0-1,0.5-2.1,0.5-3.7c0-1,0.5-2.1,0.5-3.7c0-1,0.5-2.1,0.5-2.6c0.5-1,1-2.1,2.1-2.6c1-1,1.6-1,2.6-1
		c0,0,0,0,0.5,0c0,0,0,0.5,0.5,0.5c0,0,0,0.5,0,1s0,0.5,0,1c0,1-0.5,1.6-0.5,2.6c0,1-0.5,1.6-0.5,2.6c0,0,0,0.5-0.5,1
		c0,0.5,0,1-0.5,2.1c0,0.5-0.5,1.6-0.5,2.1s-0.5,1.6-0.5,2.1s0,1-0.5,1.6c0,0.5,0,0.5,0,0.5c0,1-0.5,2.1-0.5,3.1s0,2.1,0,3.1
		s0,1.6,0,2.1s0.5,1,0.5,1c0.5,0,1,0,2.1-0.5c0.5-0.5,1-0.5,2.1-1c0.5-0.5,1-1,2.1-1.6c0.5-0.5,1-1,2.1-2.1c0.5-0.5,1-1,2.1-2.1
		c0.5-1,1.6-1.6,2.1-2.6c0.5-1,1.6-1.6,2.1-2.6c0.5-0.5,1-1.6,1.6-1.6c0,0,0,0,0-0.5c0,0,0-0.5,0.5-0.5l0.5-0.5h0.5h0.5
		c0,0,0,0.5,0,1s0,0.5,0,0.5C140.7,293.4,140.7,293.4,140.7,294z M126,265.7c0-1.6,0.5-2.6,1-3.7c0.5-1,1.6-1.6,2.6-1
		c0.5,0,0.5,0,1,0.5c0.5,0.5,0.5,0.5,1,0.5c0.5,0,0.5,0.5,0.5,1s0,0.5,0,1s-0.5,1-0.5,2.1c-0.5,0.5-0.5,1.6-1,2.1
		c-0.5,0.5-1,1-1,1.6c-0.5,0.5-1,0.5-1,0.5c-0.5,0-1,0-1-0.5c-0.5,0-0.5-0.5-1-0.5c0-0.5-0.5-0.5-0.5-1
		C125.5,266.7,126,266.2,126,265.7z"/>
	<path fill="#020203" d="M169.5,293.4c0,0.5,0,1-0.5,1c0,0.5-0.5,1-0.5,1.6c-0.5,0.5-0.5,1-1,1.6c-0.5,0.5-0.5,1-1,1
		c-0.5,1-1.6,2.1-2.6,3.1c-1,1-2.1,2.1-3.7,3.1c-1,1-2.6,2.1-4.2,3.1s-3.1,2.1-4.7,3.1c0,0,0,0-0.5,0.5s-0.5,0.5-1,1
		c-0.5,0.5-1,1-1.6,1c-0.5,0.5-1,1-1.6,1c-0.5,0.5-1,0.5-1,1s-0.5,0.5-1,0.5c-0.5,0-0.5,0-1-0.5c-0.5,0-0.5-0.5-1-0.5
		c0-0.5-0.5-0.5-0.5-1s0-0.5,0-1s0.5-1.6,0.5-2.1c0.5-0.5,1-1,1.6-1.6c0.5-0.5,1-0.5,1.6-1c0.5,0,0.5-0.5,1-0.5c0.5,0,0.5-0.5,1-0.5
		c0,0,0.5-0.5,1-1c0.5-1,1-1.6,1.6-3.1c0.5-1,1-2.6,1.6-3.7s1-2.6,1.6-3.7s0.5-2.6,1-3.7c0-0.5,0-0.5,0-1s0-0.5,0-1s0-0.5,0-0.5
		v-0.5c-0.5,0-0.5,0-1,0.5c-0.5,0-0.5,0.5-1,1c-0.5,0.5-0.5,1-1,1c-0.5,0.5-0.5,1-1,1c-1.6,2.1-3.1,4.2-4.2,6.8
		c-1,2.1-2.6,4.7-3.1,6.8c-0.5,1.6-0.5,3.7-1,5.2c-0.5,1.6-0.5,3.7-1,5.2c-0.5,2.1-0.5,3.7-1,5.2c-0.5,1.6-0.5,3.7-1,5.2
		c0,0.5-0.5,1-0.5,1.6c0,0.5-0.5,1-0.5,1c0,0.5-0.5,0.5-0.5,1c-0.5,0-0.5,0.5-1,0c0,0-0.5,0-0.5-0.5c0,0-0.5-0.5-0.5-1
		s-0.5-0.5-0.5-1s0-1,0-1c0-0.5,0-1.6,0.5-2.6c0-1,0.5-2.1,0.5-3.1s0.5-2.1,0.5-3.1s0.5-1.6,0.5-1.6c0-0.5,0.5-1.6,0.5-3.1
		c0-1,0.5-2.6,0.5-4.2c0.5-1.6,0.5-3.1,1-5.2c0.5-1.6,0.5-3.7,1-5.2c0-1.6,0.5-3.1,0.5-4.7c0-1.6,0.5-2.6,0.5-3.7s0.5-2.1,0.5-3.1
		s0.5-1.6,0.5-2.1s0.5-1,1-1.6c0.5-0.5,0.5-0.5,1-0.5c0.5,0,0.5,0,1,0.5c0,0,0.5,0.5,0.5,1s0.5,1,0.5,1c0,0.5,0,1,0,1.6s0,1,0,1.6
		c0,0.5-0.5,1.6-0.5,2.1s-0.5,1.6-0.5,2.1s-0.5,1.6-0.5,2.1c1-2.1,2.1-4.2,2.6-5.8c1-1.6,1.6-2.6,2.6-3.7c0.5-0.5,1-1,1.6-1.6
		c0.5-0.5,1-1,1.6-1.6c0.5-0.5,1-0.5,1.6-1s1-0.5,1.6-0.5s1,0.5,1.6,1s1,1,1,1.6c0.5,0.5,0.5,1.6,0.5,2.6s0,1.6,0,2.6
		s-0.5,2.1-0.5,3.1c-0.5,1-0.5,2.6-1,3.7c-0.5,1-1,2.6-1.6,3.7s-1,2.1-1.6,3.1c1-0.5,2.1-1.6,3.1-2.1c1-0.5,2.1-1.6,3.1-2.6
		c1-1,2.1-1.6,2.6-2.6c1-1,1.6-1.6,2.6-2.6c0.5-0.5,0.5-1,1-1c0.5-0.5,0.5-0.5,1-1l0.5-0.5h0.5c0,0,0.5,0,0.5,0.5c0,0,0,0.5,0.5,1
		c0,0.5,0,0.5,0,1C169.5,292.9,169.5,293.4,169.5,293.4z"/>
	<path fill="#020203" d="M177.4,309.7c0-0.5,0-1,0-1.6c0-0.5,0-1,0-2.1c0-0.5,0-1,0-2.1c0-0.5,0-1,0-1.6c-0.5,0.5-1,0.5-1,1
		c-0.5,0.5-1,0.5-1.6,0.5s-1,0.5-1.6,0.5s-1,0.5-1.6,0.5s-0.5,0-1,0.5c-0.5,0-0.5,0-0.5,0s0,0.5,0,1s0,1,0,1.6c0,0.5,0,1.6,0,2.1
		s0,1.6,0,2.1s0,1,0,2.1c0,0.5,0,1,0,1c0,0.5,0,1-0.5,1c0,0.5-0.5,1-0.5,1c0,0.5-0.5,0.5-1,1c-0.5,0-0.5,0.5-1,0.5
		c-0.5,0-0.5,0-1-0.5c-0.5,0-0.5-0.5-0.5-1s-0.5-0.5-0.5-1s0-0.5,0-0.5c0-0.5,0-1,0-2.1c0-0.5,0-1.6,0-2.6s0-1.6,0.5-2.6
		c0-1,0-2.1,0.5-2.6c0-1,0-2.1,0.5-3.1c0-1,0-2.6,0.5-3.7c0-1,0-2.6,0.5-3.7c0-1,0-2.6,0-3.7s0-2.1,0-3.1s0-1.6,0-2.1s0-1,0-1.6
		c0-0.5,0.5-1,0.5-1.6c0-0.5,0.5-0.5,1-1c0.5,0,0.5-0.5,1-0.5c0,0,0.5,0,0.5,0.5c0.5,0,0.5,0.5,0.5,1s0.5,0.5,0.5,1s0,1,0,1
		c0,1,0,2.1-0.5,3.7c0,1-0.5,2.1-0.5,3.7c0,1-0.5,2.1-0.5,3.1s0,1.6,0,2.1s0,0.5,0.5,1c0,0,0.5,0.5,1.6,0.5s1.6,0,2.1,0
		c0.5,0,1-0.5,1.6-0.5c0.5-0.5,1-0.5,1-1c0.5-0.5,0.5-0.5,0.5-1s0.5-0.5,0.5-1.6c0-0.5,0.5-1.6,0.5-2.1s0.5-1.6,0.5-2.6
		s0-1.6,0.5-2.1c0-1,0.5-1.6,0.5-2.1s0.5-1,0.5-1.6c0-0.5,0.5-0.5,0.5-0.5c0.5,0,0.5,0,1,0c1,0,1.6,0.5,1.6,1
		c0.5,0.5,0.5,1.6,0.5,2.6c0,0.5,0,1,0,1.6c0,0.5,0,1-0.5,1.6c0,0.5-0.5,1-0.5,1.6c0,0.5-0.5,1-0.5,1.6c0,0.5,0,1-0.5,1s0,0.5,0,0.5
		c0,0.5-0.5,1.6-0.5,2.1c0,1-0.5,1.6-0.5,2.6s0,1.6-0.5,2.6c0,1,0,1.6,0,2.1c0,1,0,2.1,0,2.6s0,1,0,1.6c0,0.5,0,0.5,0.5,1h0.5
		c0.5,0,1,0,1.6-0.5c0.5,0,1-0.5,1.6-1s1.6-1.6,2.1-2.6c1-1,2.1-2.6,3.1-4.2c0.5-0.5,1-1.6,1.6-2.1s1-1.6,1.6-2.1s1-1.6,1-2.1
		c0.5-0.5,0.5-1,1-1.6c0-0.5,0.5-0.5,0.5-1c0.5-0.5,0.5-0.5,1-0.5c0.5,0,0.5,0,0.5,0.5s0.5,0.5,0.5,1.6c0,0.5,0,1-0.5,2.1
		c-0.5,1-0.5,1.6-1,2.6c0,0.5-0.5,0.5-0.5,1c-0.5,0.5-0.5,1-1,2.1c-0.5,0.5-1,1.6-1.6,2.1c-0.5,1-1,1.6-1.6,2.6s-1,1.6-1.6,2.1
		s-1,1.6-1,2.1c-1.6,2.1-3.1,3.7-4.2,4.7c-1.6,1-2.6,1.6-3.7,1.6c-1.6,0-2.6-1-3.7-2.1C177.4,314.4,177.4,312.3,177.4,309.7z"/>
	<path fill="#020203" d="M219.8,305.5c0,0.5,0,1,0,1.6s-0.5,1.6-0.5,2.1c-0.5,1-0.5,1.6-1,2.6c-0.5,1-1,1.6-1.6,2.1
		c-0.5,0.5-1,1-1.6,1.6c-0.5,0.5-1,0.5-2.1,0.5c-1.6,0-2.6-0.5-3.7-2.6c-1-1.6-1.6-4.2-1.6-7.3c-0.5,1.6-1,2.6-2.1,4.2
		c-0.5,1-1.6,2.6-2.1,3.1c-1,1-1.6,1.6-2.1,2.1c-0.5,0.5-1.6,1-2.1,1c-0.5,0-1,0-1.6-0.5s-1-1-1-1.6c-0.5-0.5-0.5-1.6-1-2.1
		c0-1-0.5-1.6-0.5-2.6s0-1.6,0-2.6s0-2.1,0.5-3.1c0-1,0.5-2.1,0.5-3.7c0.5-1,0.5-2.6,1-4.2c0.5-1.6,1-3.1,2.1-4.7
		c0.5-1.6,1.6-3.1,2.1-4.2c0.5-1,1.6-2.1,2.1-2.6c0.5-0.5,1.6-1,1.6-1h0.5h0.5c0,0,0.5,0,0.5,0.5c0,0,0,0,0.5,0l0.5-0.5
		c0,0,0,0,0.5-0.5h0.5c0,0,0.5,0,0.5,0.5c0.5,0,0.5,0.5,0.5,1s0.5,0.5,0.5,1s0.5,1,0.5,1c0,0.5,0,0.5,0,0.5s0,0,0,0.5
		c0,0,0.5,0.5,0.5,1s0,0.5,0,1.6c0,0.5,0,0.5,0,1.6c0,0.5,0,1.6,0,2.6s0,1.6,0,2.6s0,2.1,0,2.6c0,2.1,0,3.7,0.5,5.2
		c0,1.6,0.5,2.6,0.5,3.1s0.5,1.6,0.5,1.6c0.5,0.5,0.5,0.5,1,0.5c0.5,0,0.5,0,1,0c0.5,0,0.5-0.5,1-0.5c0.5-0.5,0.5-0.5,1-1
		c0.5-0.5,0.5-1,1-1.6c0.5-1,1-1.6,1-2.1c0.5-0.5,0.5-1,1-1c0.5,0,0.5,0,0.5,0.5C219.8,304.4,219.8,305,219.8,305.5z M206.7,294
		c0-1.6,0-2.1,0-2.6s-0.5-1-0.5-1s-0.5,0-0.5,0.5c-0.5,0-0.5,0.5-1,0.5c0,0.5-0.5,0.5-0.5,1s-0.5,0.5-0.5,1c-0.5,1-1,2.1-1.6,3.7
		s-1,2.6-1.6,4.2c-0.5,1.6-1,3.1-1,4.2c-1,1-1,2.1-1,3.1c0,0.5,0,1.6,0,1.6c0,0.5,0.5,0.5,0.5,0.5s0.5,0,1-0.5c0.5-0.5,0.5-1,1-1.6
		c0.5-0.5,1-1.6,1-2.1c0.5-1,1-1.6,1-2.1c0.5-0.5,0.5-1.6,1-2.6c0.5-1,0.5-1.6,1-2.6c0.5-1,0.5-2.1,0.5-2.6
		C206.2,295.5,206.7,294.5,206.7,294z"/>
	<path fill="#020203" d="M287.4,286.6c0,0.5,0,1,0,1.6c0,0.5,0,1.6-0.5,2.1c0,0.5-0.5,1.6-0.5,2.1s-0.5,1-0.5,1.6
		c-0.5,1-0.5,2.1-1,3.7c-0.5,1-1,2.6-1.6,3.7c-0.5,1-1,2.1-1.6,3.7c-0.5,1-1,2.1-2.1,3.1c-1,1-1.6,1.6-2.1,2.1s-1.6,1-2.6,1
		s-1.6,0-2.1,0s-1.6-0.5-2.1-1.6c-0.5-0.5-1-1.6-1.6-3.1c-0.5-1-1-2.6-1-4.7c0-0.5,0-1.6-0.5-2.6c0-1,0-2.1-0.5-3.1
		c0-1,0-2.1-0.5-2.6c0-1,0-1.6,0-2.1c0,0,0,0.5-0.5,1c0,0.5,0,1.6-0.5,2.1c0,1-0.5,1.6-0.5,2.6s-0.5,2.1-0.5,3.1
		c-0.5,1.6-1,3.1-1,4.2c-0.5,1-1,2.6-1.6,3.1c-0.5,1-1,1.6-1.6,2.1c-0.5,0.5-1,1-2.1,1c-0.5,0-1,0-1.6-0.5c-0.5-0.5-1-1-1.6-1.6
		c-0.5-0.5-1-1.6-1.6-2.6c-0.5-1-0.5-2.6-1-4.2c0-0.5,0-1.6,0-2.1c0-1,0-2.1,0-3.1s0-2.1,0-3.1s0-2.1,0-2.6c0,0.5,0,1-0.5,1.6
		c0,0.5,0,1.6-0.5,2.6c0,1,0,2.1-0.5,2.6c0,1-0.5,2.1-0.5,3.1s-0.5,2.1-0.5,2.6c0,1-0.5,1.6-0.5,2.1c-0.5,2.6-1.6,4.2-2.6,5.8
		c-1,1.6-2.6,2.1-4.2,2.6c-0.5,0-1,0-1.6-0.5c-0.5-0.5-1-0.5-1.6-1.6c-0.5-1-1-1.6-1.6-2.6c-0.5-1-0.5-2.1-1-3.7c0-0.5,0-1,0-2.1
		c0-0.5,0-1,0.5-1.6c0-0.5,0.5-1,0.5-1c0.5-0.5,0.5-0.5,1-0.5s1,0,1.6,1c0.5,0.5,0.5,1.6,1,2.6c0,1,0.5,1.6,0.5,2.1
		c0.5,0.5,0.5,0.5,1,0.5s1-0.5,2.1-1c0.5-0.5,1-2.1,1.6-3.7c0.5-1,0.5-2.1,1-3.1c0-1,0.5-2.6,0.5-3.7c0-1.6,0.5-2.6,0.5-4.2
		c0-1.6,0.5-3.1,0.5-4.7c0-1,0.5-2.1,0.5-3.1c0-0.5,0.5-1.6,0.5-1.6s0-0.5,0.5-0.5l0.5-0.5l0.5-0.5h0.5h0.5c0.5,0,0.5,0.5,1,0.5
		c0.5,0.5,0.5,0.5,1,1s0.5,1,0.5,1.6c0,1,0,1.6,0.5,3.1c0,1,0,2.1,0,3.1c0,0.5,0,1.6,0,2.1c0,1,0,1.6,0,2.6s0,1.6,0,2.6
		s0,1.6,0.5,2.6c0,1.6,0.5,2.6,1,3.7s0.5,1,1,1s1-0.5,1.6-1c0.5-0.5,1-1,1-2.1c0-1,0.5-2.1,1-3.1s0.5-2.1,1-3.1c0-1,0.5-2.1,0.5-3.1
		s0.5-2.1,0.5-2.6c0-1,0.5-2.1,0.5-3.1s0.5-1.6,0.5-2.1s0.5-1,0.5-1l0.5-0.5c0.5,0,1,0,1.6,0c0.5,0,1,0.5,1,0.5c0.5,0.5,0.5,0.5,1,1
		s0.5,1,0.5,1.6c0,0.5,0,1.6,0.5,2.6c0,1,0,2.1,0.5,3.7c0,1,0,2.6,0.5,3.7c0,1.6,0.5,2.6,0.5,4.2c0,1,0.5,1.6,0.5,2.6
		c0.5,0.5,0.5,1,1,1.6c0.5,0.5,0.5,0.5,1,0.5s0.5,0,1,0s1-0.5,2.1-1c0.5-0.5,1-1.6,1.6-2.6c0.5-1,1-2.1,1.6-3.7c0.5-1,1-2.6,1.6-3.7
		c0-0.5,0.5-1,0.5-1.6c0-0.5,0.5-1,0.5-1.6c0-0.5,0.5-1,0.5-2.1c0-0.5,0.5-1,0.5-1.6c0-0.5,0.5-1,0.5-1c0-0.5,0.5-0.5,0.5-0.5h0.5
		C286.3,285.6,286.9,285.6,287.4,286.6L287.4,286.6z"/>
	<path fill="#020203" d="M314.1,279.3v0.5c0,0.5,0,0.5,0,1c0,0,0,0.5,0,1.6c0,0.5-0.5,1.6-0.5,2.6s-0.5,2.1-1,3.7
		c-0.5,1.6-1,2.6-1.6,4.2c-0.5,1.6-1,3.1-2.1,4.2c-0.5,1-1,2.1-1.6,2.6c-0.5,0.5-1,1-1.6,1.6c-0.5,0.5-1,0.5-1.6,0.5
		c-0.5,0-1,0-1.6,0c-0.5,0-1-0.5-1.6-1c-0.5-0.5-1-1.6-1.6-2.1c-0.5-1-1-2.1-1.6-3.7c0,1.6-0.5,3.1-0.5,4.2c-0.5,1.6-0.5,2.6-1,4.2
		c-0.5,1-1,2.1-1.6,3.1c-0.5,1-1,1-1.6,1.6c-0.5,0-1,0-1.6,0c-0.5,0-1-0.5-1.6-1c-0.5-0.5-1-1-1.6-2.1c-0.5-1-1-2.1-1-3.1
		s-0.5-2.1-0.5-3.1s0-2.6-0.5-3.7c0-1.6,0-2.6,0-4.2c0-1.6,0-2.6,0-3.7s0-2.6,0.5-3.7c0-1,0.5-2.1,0.5-2.6s0.5-1.6,1-2.6
		s1-1.6,1.6-2.6c0.5-0.5,1-1.6,1.6-2.1c0.5-0.5,1.6-1,2.1-1c1,0,1.6,0,2.1,0.5s1,1.6,1.6,3.1v0.5l0.5,0.5l0.5,0.5c0,0,0,0.5,0.5,0.5
		c0,0.5,0,0.5,0,1s0,1,0,1.6s0,1,0,2.1c0,0.5,0,1.6,0.5,2.6l0.5,1c0,1,0.5,2.1,0.5,2.6c0,1,0.5,2.1,1,2.6c0.5,0.5,0.5,1.6,1,2.1
		s0.5,0.5,1,0.5c0,0,0.5,0,1-0.5s0.5-0.5,1-1c0.5-0.5,1-1,1-2.1c0.5-0.5,1-1.6,1-2.6c0.5-1,1-2.6,1.6-3.7c0.5-1,1-2.6,1-3.1
		c0.5-1,0.5-1.6,1-2.6c0.5-0.5,0.5-1,1-1C313.1,277.7,313.6,278.2,314.1,279.3z M294.7,279.8L294.7,279.8c0-0.5-0.5-0.5-0.5-1
		s0,0-0.5-0.5c0,0,0,0-0.5,0s-1,0.5-1.6,1c-0.5,0.5-1,1-1,2.1c0,1-0.5,2.1-0.5,3.7s-0.5,3.1-0.5,4.7c0,1.6,0,3.1,0,4.7
		c0,1.6,0.5,2.6,0.5,4.2v0.5c0,0,0,0.5,0.5,0.5l0.5,0.5h0.5c0,0,0.5-0.5,0.5-1c0.5-0.5,0.5-1,1-2.1c0-1,0.5-1.6,0.5-2.6
		s0.5-2.1,0.5-3.1c0-2.1,0.5-4.2,0.5-6.3S295.2,281.9,294.7,279.8z"/>
	<path fill="#020203" d="M337.2,270.9c0,0.5,0,0.5,0,1.6c0,0.5,0,1.6-0.5,2.1c0,1-0.5,1.6-0.5,2.6s-0.5,2.1-0.5,3.1
		c-0.5,2.6-1,4.7-1.6,6.8c-0.5,2.1-1,4.2-2.1,6.3c-0.5,1.6-1.6,3.1-2.6,4.7c-1,1-2.1,2.1-3.1,2.1s-1.6,0.5-2.6,0c-1,0-1.6-0.5-2.1-1
		c-0.5-0.5-1.6-1-2.1-2.1c-0.5-1-0.5-2.1-1-3.1c-0.5-1-0.5-2.1-0.5-3.1s0-2.1,0-3.1s0.5-2.1,0.5-2.6c0-1,0.5-1.6,0.5-2.6
		c0-0.5,0.5-1,0.5-1.6c0-0.5,0-1,0.5-1.6c0-0.5,0-1,0-1.6c0-0.5,0-1,0-1.6c0-0.5-0.5-1-0.5-1s-0.5-0.5-0.5,0c-0.5,0-1,0.5-1.6,1
		c-0.5,0.5-1,1.6-1,2.6c0,0,0,0.5-0.5,1c0,0.5,0,0.5-0.5,1c0,0.5-0.5,0.5-0.5,0.5s0,0.5-0.5,0.5s-0.5,0-1,0c0,0-0.5,0-0.5-0.5
		l-0.5-0.5c0,0,0-0.5-0.5-0.5c0,0,0-0.5,0-1s0-1,0.5-2.1c0-0.5,0.5-1.6,0.5-2.6c0.5-1,0.5-1.6,1-2.6c0.5-0.5,1-1.6,1.6-2.1
		c0.5-0.5,1-1,2.1-1c1,0,1.6,0,2.1,0s1,0.5,2.1,1c0.5,0.5,1,1,1.6,2.1c0.5,0.5,0.5,1.6,1,2.6s0.5,2.1,0.5,3.1s0,2.1,0,3.1
		c0,1-0.5,2.1-0.5,2.6c0,1-0.5,1.6-0.5,2.6c0,0.5-0.5,1-0.5,1.6c0,0.5-0.5,1-0.5,1.6c0,0.5,0,1,0,1.6c0,0.5,0,1,0,1.6
		c0,0,0,0.5,0.5,0.5c0,0.5,0.5,0.5,0.5,0.5l0.5,0.5c0,0,0.5,0,1,0c0.5,0,0.5-0.5,1-0.5c0.5-0.5,0.5-0.5,1-1s0.5-1,1-1.6
		c0.5-0.5,0.5-1,1-1.6c0.5-0.5,0.5-1,1-1.6c0-0.5,0.5-1,0.5-1.6c0.5-1,0.5-1.6,1-2.6s0.5-2.1,1-3.1c0.5-1,0.5-2.1,1-2.6
		c0-1,0.5-1.6,0.5-2.6c0.5-1.6,0.5-2.6,1-3.1c0.5-1,0.5-1,0.5-1.6c0.5,0,0.5,0,1,0C336.6,269.8,336.6,270.4,337.2,270.9z"/>
	<path fill="#020203" d="M335.1,245.7c0,0,0,0.5,0,1s0,1,0,1.6c0,0.5,0,1,0,1.6c0,0.5,0,1,0,1c0,0.5,0,0.5,0,1s-0.5,0.5-0.5,1
		s-0.5,0.5-0.5,0.5l-0.5,0.5H333c0,0-0.5,0-0.5-0.5c0,0,0-0.5-0.5-0.5c0,0,0-0.5-0.5-0.5c0,0,0,0,0-0.5c0,0,0-0.5-0.5-1
		c0,0,0-0.5-0.5-0.5c0,0,0-0.5-0.5-0.5c0,0,0-0.5-0.5-0.5c0,0,0-0.5-0.5-1c0-0.5,0-1,0-1.6c0-0.5,0-1,0-1.6c0-0.5,0.5-1,0.5-1.6
		c0.5-0.5,0.5-0.5,1-1h0.5c0.5,0,0.5,0,1,0.5c0.5,0,0.5,0.5,1,0.5C335.1,245.2,335.1,245.7,335.1,245.7z M352.4,276.7
		c0,0.5,0,1,0,1.6c0,0.5,0,1,0,2.1c0,0.5,0,1.6-0.5,2.1c0,1-0.5,1.6-0.5,2.1s-0.5,1-0.5,2.1c0,1-0.5,1.6-1,2.6s-1,1.6-1.6,2.1
		c-0.5,0.5-1,1-2.1,1.6c-1,0.5-2.1,0.5-3.1,0s-1.6-1-2.6-2.1c-1-1-1.6-2.1-2.1-3.1s-1-2.6-1.6-3.7c-0.5-1-0.5-2.1-1-3.1
		s-0.5-2.1-0.5-3.1s-0.5-2.1-0.5-3.1s-0.5-2.1-0.5-2.6c0-1-0.5-1.6-0.5-2.1s0-1-0.5-1c0-0.5-0.5-1-0.5-1.6c0-0.5,0-1,0-1.6
		c0-0.5,0-1,0.5-1.6c0-0.5,0.5-0.5,1-1c0.5,0,1,0,1,0c0.5,0,0.5,0,1,0.5c0.5,0,0.5,0.5,0.5,1s0.5,0.5,0.5,1s0.5,1,0.5,1.6
		c0,0.5,0,1.6,0.5,2.6c0,0.5,0,1.6,0.5,2.1c0,1,0,1.6,0.5,2.6c0,1,0.5,2.1,0.5,2.6c0,1,0.5,2.1,1,3.1c0,0.5,0.5,1.6,1,2.1
		s0.5,1.6,1,2.1s0.5,1,1,1.6c0.5,0.5,1,0.5,1,0.5c0.5,0,1-0.5,1-1c0.5-0.5,1-1,1-2.1c0.5-0.5,0.5-1.6,1-2.1s0.5-1.6,0.5-1.6
		c0-0.5,0.5-1,0.5-1.6c0-0.5,0.5-1,0.5-1c0-0.5,0.5-0.5,0.5-1l0.5-0.5c0.5,0,0.5,0,1,0C351.8,276.1,352.4,276.7,352.4,276.7z"/>
	<path fill="#020203" d="M364.9,272.5c-0.5,1.6-0.5,3.1-1,4.7c-0.5,1.6-1,2.6-1.6,4.2c-0.5,1-1.6,2.1-2.1,3.1c-1,1-1.6,1.6-2.6,2.1
		s-1.6,0.5-2.6,0c-0.5,0-1.6-0.5-2.1-1s-1-1-1.6-2.1c-0.5-1-1-1.6-1.6-2.6c-0.5-1.6-0.5-2.6-0.5-3.7s0.5-1.6,1-1.6s1,0,1.6,0.5
		c0.5,0.5,1,1,1.6,2.1c0,0.5,0.5,1,0.5,1c0,0.5,0.5,0.5,0.5,0.5h0.5h0.5c1-0.5,1.6-1,2.6-2.1c0.5-1,1.6-2.6,2.1-4.7
		c-0.5,0-1.6,0-2.1-0.5s-1-0.5-1.6-1c-0.5-0.5-1-1-1.6-2.1c-0.5-0.5-0.5-1.6-1-2.1c-0.5-1.6-1-3.1-1-4.7c0-1.6,0-3.1,0.5-4.7
		c0-1,0.5-1.6,1-2.6c0.5-0.5,0.5-1.6,1-2.1s1-1,1.6-1.6c0.5-0.5,1-1,2.1-1c0.5,0,1-0.5,1.6,0c0.5,0,1,0.5,1.6,0.5
		c0.5,0.5,1,1,1.6,1.6c0.5,0.5,1,1.6,1.6,3.1c0,0.5,0.5,1,0.5,1.6c0,0.5,0.5,1,0.5,1.6c0,0.5,0,1,0.5,1.6c0,0.5,0,1,0,1
		c0,0.5,0,0.5,0,1s0,0.5,0,0.5v0.5c0,0,0,0,0.5,0.5c0,0,0,0.5,0.5,0.5c0,0,0,0.5,0.5,0.5c0,0,0,0.5,0.5,1s0,1,0.5,2.1
		c0,1.6,0.5,2.6,0.5,4.2c0,1.6,0.5,2.6,1,4.2c0,0.5,0.5,1,0.5,1.6c0.5,0.5,0.5,0.5,1,0.5c1-0.5,1.6-1,2.6-3.1
		c0.5-1.6,1.6-3.7,2.1-6.3c0-0.5,0-1,0.5-1.6c0-0.5,0.5-0.5,0.5-0.5h0.5c0.5,0,0.5,0.5,0.5,1c0.5,1,0.5,2.1,0,3.7
		c0,1.6-0.5,2.6-1,4.2c-0.5,1.6-0.5,2.6-1,4.2c-0.5,1-1,2.6-1.6,3.1c-0.5,1-1.6,1.6-2.6,2.1s-2.6,0-3.7-0.5c-1-1-2.1-2.6-2.6-4.7
		c0-0.5-0.5-1-0.5-1.6c0-0.5-0.5-1-0.5-2.1c0-0.5-0.5-1-0.5-1.6c0-0.5,0-1,0-1.6L364.9,272.5z M362.3,257.8c0-0.5-0.5-1-1-1.6
		c-0.5-0.5-0.5-0.5-1-0.5s-1,0.5-1.6,1.6c-0.5,0.5-0.5,1.6-1,2.6c0,1,0,2.1,0,2.6c0,1,0,2.1,0.5,2.6c0,0.5,0.5,0.5,0.5,1
		s0.5,0.5,0.5,0.5s0.5,0.5,1,0.5s0.5,0,1,0c0,0,0.5,0,0.5-0.5l0.5-0.5l0.5-0.5v-0.5c0,0,0-0.5,0-1s0-1,0-2.1c0-0.5,0-1.6-0.5-2.1
		C362.8,259.4,362.8,258.8,362.3,257.8z"/>
</g>
</svg>
