<?xml version="1.0" encoding="utf-8"?>
<!-- Generator: Adobe Illustrator 23.1.0, SVG Export Plug-In . SVG Version: 6.00 Build 0)  -->
<svg version="1.1" id="Шар_1" xmlns="http://www.w3.org/2000/svg" xmlns:xlink="http://www.w3.org/1999/xlink" x="0px" y="0px"
	 viewBox="0 0 150 40" style="enable-background:new 0 0 150 40;" xml:space="preserve">
<style type="text/css">
	.st0{fill:#F7931E;}
	.st1{fill:#4A8F12;}
	.st2{fill:#28590A;}
	.st3{fill:#A67C52;}
	.st4{fill:#89BE30;}
	.st5{fill:#39B54A;}
	.st6{fill:#4BBC56;}
	.st7{fill:#C1272D;}
	.st8{fill:#163009;}
	.st9{font-family:'BaskOldFace';}
	.st10{font-size:23.4832px;}
	.st11{display:none;enable-background:new    ;}
	.st12{font-family:'ArialMT';}
	.st13{font-size:3.7703px;}
	.st14{letter-spacing:0.4;}
	.st15{fill:none;stroke:#000000;stroke-width:0.5;stroke-miterlimit:10;}
</style>
<g>
	<g>
		<path class="st0" d="M30.6,11.9c0-0.1,0-0.1,0-0.2s0-0.1,0-0.1s0-0.1,0.1-0.1c0,0,0.1,0,0.1,0.1c0,0.2,0,0.1,0,0.3l0,0
			c0.2,0,0.4,0.1,0.5,0.3c0,0.1,0.1,0.2,0.1,0.2c0.1,0.2,0.2,0.3,0.2,0.5c0.1,0.1,0.1,0.2,0.2,0.3c0.1,0.2,0.2,0.3,0.2,0.5
			c0,0.4,0,0.7-0.3,1c-0.2,0.2-0.4,0.4-0.8,0.5c-0.1,0-0.3,0-0.4,0c-0.3,0-0.5-0.1-0.8-0.3c-0.2-0.2-0.4-0.4-0.4-0.7
			c0-0.1,0-0.3,0-0.4c0-0.2,0.1-0.4,0.2-0.6c0.2-0.3,0.3-0.6,0.5-0.9c0-0.1,0.1-0.2,0.1-0.2C30.2,11.9,30.3,11.9,30.6,11.9
			C30.5,11.8,30.5,11.8,30.6,11.9C30.6,12,30.6,12,30.6,11.9v-0.1C30.6,11.7,30.6,12.1,30.6,11.9C30.6,12,30.6,12,30.6,11.9z"/>
		<path class="st0" d="M17.8,9.7c0-0.1,0-0.1,0-0.1V9.5c0,0,0-0.1,0.1-0.1c0,0,0.1,0,0.1,0.1c0,0.2,0,0.1,0,0.3l0,0
			c0.2,0,0.3,0.1,0.4,0.3c0,0.1,0.1,0.2,0.1,0.2c0.1,0.2,0.1,0.3,0.2,0.5c0.1,0.1,0.1,0.2,0.2,0.3s0.2,0.3,0.2,0.5
			c0,0.3,0,0.7-0.3,0.9c-0.2,0.2-0.4,0.4-0.7,0.4c-0.1,0-0.3,0-0.4,0c-0.3,0-0.5-0.1-0.7-0.3s-0.3-0.4-0.4-0.7c0-0.1,0-0.2,0-0.4
			s0.1-0.4,0.2-0.5c0.2-0.3,0.3-0.5,0.4-0.8c0-0.1,0.1-0.1,0.1-0.2C17.4,9.9,17.5,9.8,17.8,9.7L17.8,9.7L17.8,9.7
			C17.8,9.7,17.8,9.7,17.8,9.7C17.8,9.5,17.8,9.8,17.8,9.7L17.8,9.7z"/>
		<g>
			<g>
				<path class="st1" d="M30.8,14.4c-1.2,0-1.9-0.1-2.7,0.3c-0.9,0.5-1,0.9-1,1.6C27.8,16.8,30.1,16.5,30.8,14.4z"/>
			</g>
		</g>
		<path class="st1" d="M20.2,7.5c1.2,2.2,0.9,3.2-1.1,4.7C17.8,10.2,17.9,9.4,20.2,7.5z"/>
		<path class="st2" d="M18.9,19.2c1.7,1,2.1,1.7,1.3,3.6C18.4,22.1,18.2,21.5,18.9,19.2z"/>
		<path class="st1" d="M14.1,23.9c-0.2,1-0.7,1.6-1.5,2.1c-0.6,0.1-1.2,0.2-1.9-0.1C10.8,24,12.2,23.2,14.1,23.9z"/>
		<path class="st3" d="M24.5,37.1c-1.9,0.7-3.3-0.4-4.7-1c-1.4,0.7-2.7,1.6-4.4,1.1c-0.2-0.2-0.1-0.4,0.1-0.5
			c1.6-1.1,2.1-2.8,2.2-4.4c0.2-2.5,0.5-5-0.5-7.4c-0.8-1-1.9-1.7-2.7-3.1c2.6-0.2,3.8,1.7,5.7,2.5c1-0.9,2.1-1.7,3.4-2.4
			c0.7-0.3,0.7-0.3,1.7,0.3c0,0.1,0,0.3-0.1,0.4c-2.2,1.2-3,3.2-2.8,5.6c0.1,1,0.1,2,0,2.9C22.1,33.4,22.7,35.4,24.5,37.1z"/>
		<g>
			<g>
				<path class="st4" d="M36.9,14c-1.2,0.1-2,0-2.9,0.4c-0.9,0.6-1,1-1,1.8C33.9,16.7,36.2,16.3,36.9,14z"/>
			</g>
		</g>
		<g>
			<path class="st5" d="M34.3,17.7c-1.4-0.2-2.2-0.6-3.2-0.3c-1.1,0.4-1.2,0.9-1.3,1.7C30.6,19.9,33.2,20.1,34.3,17.7z"/>
		</g>
		<g>
			<g>
				<path class="st4" d="M37.2,21.8C36.3,21,35.9,20.4,35,20c-1-0.3-1.4,0-2,0.4C33.2,21.4,35.1,22.9,37.2,21.8z"/>
			</g>
		</g>
		<g>
			<g>
				<path class="st1" d="M31.3,21.7c-1.1-0.8-1.6-1.4-2.7-1.6c-1.1-0.1-1.5,0.2-2,0.9C27,21.9,29.3,23.3,31.3,21.7z"/>
			</g>
		</g>
		<g>
			<g>
				<path class="st4" d="M29.7,26.2c-0.7-1-1-1.7-1.9-2.2c-1-0.4-1.4-0.3-2,0.1C25.8,25,27.4,26.8,29.7,26.2z"/>
			</g>
		</g>
		<g>
			<g>
				<path class="st2" d="M27.5,17.9c-1.5,0-2.4-0.2-3.4,0.3c-1,0.6-1.1,1.2-1.1,2.1C24,20.9,26.9,20.6,27.5,17.9z"/>
			</g>
		</g>
		<g>
			<path class="st5" d="M27.5,13.2c-0.8,0.1-1.3,0-1.9,0.3c-0.6,0.4-0.7,0.7-0.7,1.2C25.5,15,27.1,14.7,27.5,13.2z"/>
		</g>
		<g>
			<g>
				<path class="st1" d="M30.9,8.8c-1.5,0.3-2.4,0.3-3.4,1c-0.9,0.8-0.9,1.4-0.7,2.3C27.9,12.4,30.7,11.6,30.9,8.8z"/>
			</g>
		</g>
		<g>
			<g>
				<path class="st4" d="M29,5.4c-1.2,0.4-1.9,0.5-2.6,1.2c-0.7,0.8-0.7,1.3-0.4,2C26.9,8.8,29.1,7.8,29,5.4z"/>
			</g>
		</g>
		<g>
			<g>
				<path class="st4" d="M23.4,4.5C22.7,5.5,22.2,6,22,7c-0.1,1.1,0.2,1.4,0.8,1.9C23.7,8.5,24.9,6.5,23.4,4.5z"/>
			</g>
		</g>
		<g>
			<g>
				<path class="st2" d="M18.8,13.6c-0.1,1.4-0.4,2.2-0.1,3.3c0.5,1.1,1,1.3,1.8,1.5C21.3,17.6,21.3,14.8,18.8,13.6z"/>
			</g>
		</g>
		<g>
			<path class="st5" d="M25,9.8c-1.2,0.5-2,0.7-2.8,1.4c-0.8,0.9-0.7,1.4-0.5,2.2C22.6,13.7,24.9,12.5,25,9.8z"/>
		</g>
		<g>
			<g>
				<path class="st4" d="M20,6.3c0.3-1.2,0.7-1.9,0.6-2.8c-0.2-1-0.6-1.3-1.3-1.5C18.6,2.4,18.1,4.8,20,6.3z"/>
			</g>
		</g>
		<g>
			<g>
				<path class="st1" d="M17,9.6c0.2-1.3,0.5-2.1,0.3-3.2c-0.4-1.1-0.9-1.3-1.7-1.5C14.9,5.6,14.7,8.3,17,9.6z"/>
			</g>
		</g>
		<g>
			<g>
				<path class="st4" d="M11,4.8c0.1,1.2,0,2,0.4,2.8c0.6,0.9,1,1,1.8,1C13.7,7.9,13.3,5.5,11,4.8z"/>
			</g>
		</g>
		<g>
			<g>
				<path class="st1" d="M12.9,12.3c-0.6-1.4-0.8-2.3-1.7-3.2c-1.1-0.8-1.6-0.7-2.5-0.4C8.5,9.9,9.9,12.5,12.9,12.3z"/>
			</g>
		</g>
		<g>
			<path class="st5" d="M17.1,12.9c-0.5-1.3-0.6-2.1-1.3-2.8c-0.9-0.7-1.3-0.5-2.1-0.2C13.5,11,14.6,13.3,17.1,12.9z"/>
		</g>
		<g>
			<path class="st6" d="M12.5,13.7c0.9,1.2,1.3,2,2.3,2.6c1.2,0.5,1.6,0.3,2.4-0.2C17.2,15,15.3,12.8,12.5,13.7z"/>
		</g>
		<g>
			<path class="st5" d="M13.1,18.9c0.9,0.8,1.4,1.3,2.3,1.6c1.1,0.2,1.4,0,2-0.5C17.2,19.1,15.2,17.8,13.1,18.9z"/>
		</g>
		<g>
			<g>
				<path class="st1" d="M7.7,21.7c1.4,0.5,2.1,1,3.3,1c1.2-0.2,1.5-0.7,1.8-1.5C12.1,20.3,9.3,19.5,7.7,21.7z"/>
			</g>
		</g>
		<g>
			<g>
				<path class="st4" d="M2.2,21c1.3,0.3,2.1,0.7,3.1,0.5c1.1-0.3,1.4-0.7,1.6-1.5C6.3,19.2,3.6,18.8,2.2,21z"/>
			</g>
		</g>
		<g>
			<g>
				<path class="st1" d="M4.9,18c1.3,0.6,2.1,1.1,3.3,1.2c1.3-0.1,1.7-0.4,2.3-1.2C9.9,17,7.2,16.1,4.9,18z"/>
			</g>
		</g>
		<g>
			<g>
				<path class="st1" d="M6.5,13.4c1,1,1.4,1.7,2.4,2.1c1.1,0.3,1.6,0.1,2.2-0.4C10.9,14.1,8.9,12.3,6.5,13.4z"/>
			</g>
		</g>
		<g>
			<g>
				<path class="st4" d="M8.4,12c-0.6-1.2-0.8-2-1.6-2.7c-1-0.7-1.4-0.5-2.2-0.2C4.4,10.2,5.8,12.4,8.4,12z"/>
			</g>
		</g>
		<g>
			<g>
				<path class="st4" d="M1.9,14.9c1.1,0.7,1.6,1.2,2.6,1.3c1.1,0,1.4-0.3,1.9-0.9C5.9,14.4,3.8,13.4,1.9,14.9z"/>
			</g>
		</g>
		<g>
			<g>
				<path class="st4" d="M35.1,9.7c-1.2,0.1-2,0-2.9,0.4c-0.9,0.6-1,1-1,1.8C32.1,12.4,34.5,12,35.1,9.7z"/>
			</g>
		</g>
		<path class="st7" d="M33.3,22.4c0.1,0.2,0,0.4,0,0.5s0,0,0,0.1l0,0l0,0c0.2-0.1,0.4-0.2,0.6-0.2c0.3,0,0.6,0.1,0.8,0.4
			c0.2,0.2,0.2,0.4,0.3,0.7c0.1,0.7-0.1,1.2-0.5,1.7c-0.2,0.2-0.4,0.3-0.6,0.4c-0.1,0.1-0.2,0.1-0.4,0c-0.1,0-0.2,0-0.4-0.1
			c0,0,0,0-0.1,0c0,0.1-0.1,0.1-0.3,0.2c-0.2,0-0.3,0-0.5-0.1c-0.3-0.2-0.6-0.5-0.8-0.9c-0.2-0.5-0.3-1-0.1-1.4
			c0.1-0.2,0.2-0.4,0.4-0.6c0.3-0.2,0.6-0.3,0.9-0.2c0.2,0,0.3,0.1,0.4,0.2l0,0c0-0.2,0-0.4,0-0.5c-0.1-0.3-0.3-0.4-0.6-0.5
			c-0.1,0-0.1,0-0.1-0.1s0-0.1,0.1,0c0.3,0.1,0.5,0.2,0.7,0.5C33.2,22.3,33.2,22.4,33.3,22.4z"/>
		<path class="st7" d="M6.5,22.3c-0.1,0.2,0,0.4,0,0.4l0,0l0,0l0,0c-0.1-0.1-0.3-0.1-0.5-0.1c-0.3,0-0.5,0.1-0.7,0.3
			C5.1,23.1,5,23.3,5,23.5c-0.1,0.5,0.1,1,0.4,1.4c0.1,0.2,0.3,0.3,0.5,0.4c0.1,0,0.2,0,0.3,0c0.1,0,0.2,0,0.3-0.1l0,0
			c0.1,0,0.2,0.1,0.3,0.1c0.1,0,0.3,0,0.4-0.1c0.3-0.2,0.5-0.4,0.6-0.7C8,24.1,8.1,23.7,8,23.3c-0.1-0.2-0.1-0.4-0.3-0.5
			c-0.2-0.2-0.5-0.2-0.8-0.2c-0.1,0-0.2,0.1-0.4,0.2l0,0C6.5,22.7,6.5,22.5,6.5,22.3C6.6,22.1,6.8,22,7,21.9c0,0,0.1,0,0.1-0.1
			c0,0,0,0-0.1,0c-0.2,0.1-0.4,0.2-0.5,0.4C6.5,22.3,6.5,22.3,6.5,22.3z"/>
		<path class="st7" d="M23.2,14.5c-0.1,0.2,0,0.4-0.1,0.4l0,0l0,0l0,0c-0.1-0.1-0.3-0.1-0.5-0.2c-0.3,0-0.5,0.1-0.7,0.3
			c-0.1,0.2-0.2,0.4-0.2,0.6c-0.1,0.5,0.1,1,0.4,1.4c0.1,0.2,0.3,0.3,0.5,0.4c0.1,0.1,0.2,0.1,0.3,0c0.1,0,0.2,0,0.3-0.1l0,0
			c0.1,0,0.2,0.1,0.3,0.1c0.1,0,0.3,0,0.4-0.1c0.3-0.2,0.5-0.4,0.7-0.7c0.2-0.4,0.2-0.8,0.1-1.2c0-0.2-0.1-0.4-0.3-0.5
			c-0.2-0.2-0.5-0.2-0.8-0.2c-0.1,0-0.3,0.1-0.4,0.1l0,0c0-0.1,0-0.3,0-0.4c0.1-0.2,0.3-0.3,0.5-0.4c0,0,0.1,0,0.1-0.1s0,0-0.1,0
			c-0.2,0-0.4,0.2-0.5,0.4C23.2,14.5,23.2,14.5,23.2,14.5z"/>
		<path class="st0" d="M12,14.6c0-0.1,0-0.2,0-0.2v-0.1c0-0.1,0-0.1,0.1-0.1c0,0,0.1,0,0.1,0.1c0,0.3,0,0.1,0,0.4l0,0
			c0.2,0,0.4,0.2,0.5,0.4c0,0.1,0.1,0.2,0.1,0.3c0.1,0.2,0.2,0.4,0.3,0.6c0.1,0.1,0.1,0.2,0.2,0.3c0.1,0.2,0.2,0.4,0.2,0.6
			c0.1,0.4-0.1,0.8-0.3,1.1c-0.2,0.3-0.5,0.4-0.9,0.5c-0.2,0-0.3,0.1-0.5,0c-0.3,0-0.6-0.2-0.9-0.4c-0.3-0.2-0.4-0.5-0.5-0.8
			c0-0.2,0-0.3,0-0.5s0.1-0.5,0.2-0.7c0.2-0.3,0.4-0.7,0.5-1c0-0.1,0.1-0.2,0.1-0.3c0.1-0.2,0.3-0.3,0.5-0.3c0,0,0,0,0.1,0l0,0
			c0-0.1,0-0.1,0-0.2C12,14.4,12,14.8,12,14.6L12,14.6z"/>
	</g>
	<g>
		<g>
			<text transform="matrix(0.9385 0 0 1 40.4746 27.8438)" class="st8 st9 st10">Fruit garden</text>
		</g>
		<text transform="matrix(2.4475 0 0 1 46.7939 37.0254)" class="st11 st12 st13 st14">natural product</text>
	</g>
	<line class="st15" x1="39.7" y1="-1.3" x2="39.7" y2="42.5"/>
</g>
</svg>
