<svg id="Шар_2" data-name="Шар 2" xmlns="http://www.w3.org/2000/svg" viewBox="0 0 146.07 43.77"><defs><style>.cls-1{fill:#f7931e;}.cls-2{fill:#4a8f12;}.cls-3{fill:#28590a;}.cls-4{fill:#a67c52;}.cls-5{fill:#89be30;}.cls-6{fill:#39b54a;}.cls-7{fill:#4bbc56;}.cls-8{fill:#c1272d;}.cls-10,.cls-9{isolation:isolate;}.cls-9{font-size:21.69px;fill:#163009;font-family:BaskOldFace, Baskerville Old Face;}.cls-10{font-size:3.77px;font-family:ArialMT, Arial;letter-spacing:0.27em;}.cls-11{fill:none;stroke:#000;stroke-miterlimit:10;stroke-width:2px;}</style></defs><title>qwert</title><path class="cls-1" d="M31.12,10.85v-.27a.07.07,0,0,1,.07-.07.07.07,0,0,1,.06.07v.3s0,0,0,0a.62.62,0,0,1,.48.34l.1.24c.07.17.17.34.24.52l.21.3a1.59,1.59,0,0,1,.2.55,1.29,1.29,0,0,1-.27,1,1.4,1.4,0,0,1-.76.48,2.12,2.12,0,0,1-.44,0,1.47,1.47,0,0,1-.76-.31,1.31,1.31,0,0,1-.44-.72,1.39,1.39,0,0,1,0-.41,1.92,1.92,0,0,1,.21-.58,8.39,8.39,0,0,0,.48-.89l.1-.24a.6.6,0,0,1,.45-.28h.07v-.1Z" transform="translate(-2.46 3.37)"/><path class="cls-1" d="M18.37,8.59V8.38a.08.08,0,0,1,.07-.07s.06,0,.06.07v.31s0,0,0,0A.58.58,0,0,1,19,9c0,.07.07.17.11.24a1.8,1.8,0,0,0,.24.48l.17.28a.84.84,0,0,1,.17.51,1.22,1.22,0,0,1-.27.93,1.2,1.2,0,0,1-.69.44,1.43,1.43,0,0,1-.41,0,1.19,1.19,0,0,1-.69-.31A1.31,1.31,0,0,1,17.2,11a1.54,1.54,0,0,1,0-.37,1.45,1.45,0,0,1,.2-.55c.17-.28.31-.55.45-.83l.1-.2a.64.64,0,0,1,.41-.27h0V8.59Z" transform="translate(-2.46 3.37)"/><path class="cls-2" d="M31.36,13.28a6.86,6.86,0,0,0-2.71.31,1.76,1.76,0,0,0-1,1.65A3,3,0,0,0,31.36,13.28Z" transform="translate(-2.46 3.37)"/><path class="cls-2" d="M20.77,6.39c1.2,2.2.92,3.23-1.14,4.67C18.3,9.07,18.47,8.35,20.77,6.39Z" transform="translate(-2.46 3.37)"/><path class="cls-3" d="M19.4,18.08c1.74,1,2.05,1.75,1.26,3.64C18.92,21,18.71,20.38,19.4,18.08Z" transform="translate(-2.46 3.37)"/><path class="cls-2" d="M14.63,22.81a3.13,3.13,0,0,1-1.47,2.09,2.63,2.63,0,0,1-1.85-.07C11.37,23,12.71,22.09,14.63,22.81Z" transform="translate(-2.46 3.37)"/><path class="cls-4" d="M25,36c-1.89.72-3.26-.38-4.7-1-1.4.66-2.71,1.65-4.39,1.1-.24-.2-.07-.41.11-.51a5.5,5.5,0,0,0,2.16-4.42c.17-2.47.51-5-.55-7.41-.79-1-1.89-1.71-2.71-3.05,2.57-.2,3.84,1.68,5.69,2.5A15.73,15.73,0,0,1,24,20.86c.72-.34.72-.34,1.71.27,0,.14,0,.35-.1.38a5.48,5.48,0,0,0-2.85,5.55,20.33,20.33,0,0,1,0,2.92A7,7,0,0,0,25,36Z" transform="translate(-2.46 3.37)"/><path class="cls-5" d="M37.46,12.91a7.24,7.24,0,0,0-2.88.41,1.76,1.76,0,0,0-1,1.78A3.05,3.05,0,0,0,37.46,12.91Z" transform="translate(-2.46 3.37)"/><path class="cls-6" d="M34.78,16.64c-1.37-.24-2.19-.58-3.22-.31a1.79,1.79,0,0,0-1.33,1.75A3.07,3.07,0,0,0,34.78,16.64Z" transform="translate(-2.46 3.37)"/><path class="cls-5" d="M37.77,20.76a7.28,7.28,0,0,0-2.23-1.86,1.81,1.81,0,0,0-2,.45C33.72,20.28,35.61,21.78,37.77,20.76Z" transform="translate(-2.46 3.37)"/><path class="cls-2" d="M31.87,20.62A7.29,7.29,0,0,0,29.16,19a1.87,1.87,0,0,0-2,.85A3.21,3.21,0,0,0,31.87,20.62Z" transform="translate(-2.46 3.37)"/><path class="cls-5" d="M30.23,25.07c-.72-1-1-1.68-1.89-2.19a1.79,1.79,0,0,0-2,.1C26.32,23.91,27.93,25.73,30.23,25.07Z" transform="translate(-2.46 3.37)"/><path class="cls-3" d="M28,16.78c-1.47,0-2.36-.17-3.43.31a1.87,1.87,0,0,0-1.06,2.05A3.26,3.26,0,0,0,28,16.78Z" transform="translate(-2.46 3.37)"/><path class="cls-6" d="M28,12.12a4.52,4.52,0,0,0-1.89.27,1.17,1.17,0,0,0-.65,1.17A2,2,0,0,0,28,12.12Z" transform="translate(-2.46 3.37)"/><path class="cls-2" d="M31.46,7.7C30,8,29.06,8,28.1,8.66a1.92,1.92,0,0,0-.72,2.26A3.42,3.42,0,0,0,31.46,7.7Z" transform="translate(-2.46 3.37)"/><path class="cls-5" d="M29.57,4.27A6.84,6.84,0,0,0,27,5.5a1.79,1.79,0,0,0-.45,2A3,3,0,0,0,29.57,4.27Z" transform="translate(-2.46 3.37)"/><path class="cls-5" d="M24,3.41A7.25,7.25,0,0,0,22.51,6a1.77,1.77,0,0,0,.79,1.88A3,3,0,0,0,24,3.41Z" transform="translate(-2.46 3.37)"/><path class="cls-3" d="M19.36,12.53c-.14,1.4-.41,2.19-.07,3.29a2,2,0,0,0,1.82,1.47C21.79,16.47,21.79,13.73,19.36,12.53Z" transform="translate(-2.46 3.37)"/><path class="cls-6" d="M25.53,8.73a8.47,8.47,0,0,0-2.84,1.4,2,2,0,0,0-.52,2.19C23.13,12.56,25.46,11.36,25.53,8.73Z" transform="translate(-2.46 3.37)"/><path class="cls-5" d="M20.56,5.16a6.58,6.58,0,0,0,.58-2.84A1.78,1.78,0,0,0,19.81.77C19.09,1.36,18.64,3.72,20.56,5.16Z" transform="translate(-2.46 3.37)"/><path class="cls-2" d="M17.54,8.52a8.1,8.1,0,0,0,.28-3.19,2,2,0,0,0-1.68-1.54C15.42,4.54,15.25,7.18,17.54,8.52Z" transform="translate(-2.46 3.37)"/><path class="cls-5" d="M11.55,3.76A7.13,7.13,0,0,0,12,6.6a1.8,1.8,0,0,0,1.78,1A3,3,0,0,0,11.55,3.76Z" transform="translate(-2.46 3.37)"/><path class="cls-2" d="M13.43,11.23C12.81,9.82,12.64,8.9,11.75,8a2.15,2.15,0,0,0-2.5-.41C9,8.79,10.45,11.4,13.43,11.23Z" transform="translate(-2.46 3.37)"/><path class="cls-6" d="M17.61,11.81C17.13,10.54,17,9.68,16.31,9a1.62,1.62,0,0,0-2.06-.18A2.82,2.82,0,0,0,17.61,11.81Z" transform="translate(-2.46 3.37)"/><path class="cls-7" d="M13.05,12.63c.9,1.2,1.27,2,2.3,2.61A2.12,2.12,0,0,0,17.78,15C17.75,13.87,15.8,11.71,13.05,12.63Z" transform="translate(-2.46 3.37)"/><path class="cls-6" d="M13.64,17.77A6.72,6.72,0,0,0,16,19.38a1.9,1.9,0,0,0,2-.51C17.72,18.05,15.76,16.71,13.64,17.77Z" transform="translate(-2.46 3.37)"/><path class="cls-2" d="M8.19,20.62c1.37.51,2.12,1,3.29,1a1.93,1.93,0,0,0,1.81-1.48A3.39,3.39,0,0,0,8.19,20.62Z" transform="translate(-2.46 3.37)"/><path class="cls-5" d="M2.7,19.9c1.31.34,2.06.72,3.12.55a2,2,0,0,0,1.65-1.51A3.29,3.29,0,0,0,2.7,19.9Z" transform="translate(-2.46 3.37)"/><path class="cls-2" d="M5.45,16.88a8.9,8.9,0,0,0,3.29,1.17A2.46,2.46,0,0,0,11,16.88C10.45,16,7.71,15,5.45,16.88Z" transform="translate(-2.46 3.37)"/><path class="cls-2" d="M7,12.32c1,1,1.41,1.68,2.44,2.09A1.92,1.92,0,0,0,11.68,14,3.42,3.42,0,0,0,7,12.32Z" transform="translate(-2.46 3.37)"/><path class="cls-5" d="M8.91,11A7.53,7.53,0,0,0,7.26,8.28,1.9,1.9,0,0,0,5.07,8C4.9,9.07,6.3,11.3,8.91,11Z" transform="translate(-2.46 3.37)"/><path class="cls-5" d="M2.46,13.8A6.85,6.85,0,0,0,5,15.1a1.82,1.82,0,0,0,1.85-.89A3,3,0,0,0,2.46,13.8Z" transform="translate(-2.46 3.37)"/><path class="cls-5" d="M35.68,8.62A7.62,7.62,0,0,0,32.8,9a1.78,1.78,0,0,0-1,1.79A3.05,3.05,0,0,0,35.68,8.62Z" transform="translate(-2.46 3.37)"/><path class="cls-8" d="M33.79,21.3a1.22,1.22,0,0,1,0,.48v.11h0a1.09,1.09,0,0,1,.58-.17,1,1,0,0,1,.82.37,1.34,1.34,0,0,1,.28.72A2.09,2.09,0,0,1,35,24.49a1.75,1.75,0,0,1-.58.45.45.45,0,0,1-.38,0,1.27,1.27,0,0,1-.37-.1h-.07a1.34,1.34,0,0,1-.38.1.58.58,0,0,1-.48-.14A2.17,2.17,0,0,1,32,24a1.91,1.91,0,0,1-.13-1.44,1.21,1.21,0,0,1,.37-.62,1,1,0,0,1,.93-.2,1,1,0,0,1,.44.2s0,0,0,0a1,1,0,0,0,0-.55.84.84,0,0,0-.61-.52c-.07,0-.07,0-.07-.06s0-.07.1,0a.92.92,0,0,1,.65.48C33.76,21.2,33.76,21.27,33.79,21.3Z" transform="translate(-2.46 3.37)"/><path class="cls-8" d="M7,21.24a.8.8,0,0,0,0,.37v.07h0a1.12,1.12,0,0,0-.48-.14.88.88,0,0,0-.69.31,1.39,1.39,0,0,0-.24.59,1.7,1.7,0,0,0,.41,1.37,1.67,1.67,0,0,0,.48.37.85.85,0,0,0,.31,0A1.08,1.08,0,0,0,7,24.15h0a1.09,1.09,0,0,0,.3.07.67.67,0,0,0,.42-.11,1.69,1.69,0,0,0,.72-1.88,1,1,0,0,0-.31-.51.8.8,0,0,0-.76-.18,2.1,2.1,0,0,0-.37.18H7a.7.7,0,0,1,0-.45.69.69,0,0,1,.51-.41.08.08,0,0,0,.07-.07s0,0-.07,0a.88.88,0,0,0-.55.37S7,21.2,7,21.24Z" transform="translate(-2.46 3.37)"/><path class="cls-8" d="M23.68,13.46c-.07.17,0,.37-.07.37v.07h0a1.82,1.82,0,0,0-.48-.17.69.69,0,0,0-.69.31,1.24,1.24,0,0,0-.24.58A1.76,1.76,0,0,0,22.55,16a1.71,1.71,0,0,0,.48.38.31.31,0,0,0,.31,0,.92.92,0,0,0,.31-.07h0l.31.11a.48.48,0,0,0,.41-.11,1.58,1.58,0,0,0,.65-.68,1.62,1.62,0,0,0,.14-1.2,1,1,0,0,0-.28-.52.76.76,0,0,0-.75-.17,1.42,1.42,0,0,0-.38.14s0,0,0,0a1,1,0,0,1,0-.45A.72.72,0,0,1,24.3,13a.07.07,0,0,0,.06-.07s0,0-.06,0a.78.78,0,0,0-.55.37C23.71,13.39,23.68,13.42,23.68,13.46Z" transform="translate(-2.46 3.37)"/><path class="cls-1" d="M12.51,13.52v-.27c0-.07,0-.07.06-.07a.08.08,0,0,1,.07.07v.38s0,0,0,0a.71.71,0,0,1,.55.38c0,.1.1.2.13.31a5.84,5.84,0,0,0,.31.61l.21.35a1.53,1.53,0,0,1,.24.61,1.5,1.5,0,0,1-.31,1.13,1.73,1.73,0,0,1-.86.55,1.26,1.26,0,0,1-.51,0,1.51,1.51,0,0,1-.86-.38,1.39,1.39,0,0,1-.51-.82A2,2,0,0,1,11,16a1.38,1.38,0,0,1,.24-.65,5.07,5.07,0,0,0,.55-1c0-.11.07-.17.1-.28a.72.72,0,0,1,.52-.34h.07a0,0,0,0,0,0,0v-.21c0-.14,0,.24,0,.1Z" transform="translate(-2.46 3.37)"/><text class="cls-9" transform="translate(45.6 25.62) scale(0.94 1)">Fruit garden</text><text class="cls-10" transform="translate(46.86 39.31) scale(2.45 1)">natural product</text><line class="cls-11" x1="39.76" x2="39.76" y2="43.77"/></svg>